<?xml version="1.0" standalone="no"?>
<!DOCTYPE svg PUBLIC "-//W3C//DTD SVG 20010904//EN"
 "http://www.w3.org/TR/2001/REC-SVG-20010904/DTD/svg10.dtd">
<svg version="1.0" xmlns="http://www.w3.org/2000/svg"
 width="260.000000pt" height="260.000000pt" viewBox="0 0 260.000000 260.000000"
 preserveAspectRatio="xMidYMid meet">
<metadata>
Created by potrace 1.14, written by Peter Selinger 2001-2017
</metadata>
<g transform="translate(0.000000,260.000000) scale(0.100000,-0.100000)"
fill="#000000" stroke="none">
<path d="M890 2170 c-7 -4 -9 -13 -6 -19 4 -6 2 -11 -3 -11 -6 0 -11 -7 -11
-15 0 -8 -3 -15 -7 -15 -9 0 -33 -49 -33 -67 0 -7 -4 -13 -9 -13 -5 0 -12 -12
-16 -27 -3 -15 -10 -30 -15 -33 -5 -3 -10 -12 -12 -20 -2 -8 -9 -21 -16 -28
-7 -8 -10 -18 -7 -23 4 -5 2 -9 -4 -9 -6 0 -13 -11 -17 -25 -3 -14 -10 -25
-15 -25 -5 0 -9 -3 -8 -7 2 -16 -14 -53 -22 -53 -5 0 -9 -3 -8 -7 2 -16 -14
-53 -23 -53 -5 0 -6 -4 -3 -10 3 -5 1 -10 -5 -10 -6 0 -9 -4 -5 -9 3 -5 0 -15
-7 -23 -7 -7 -14 -20 -16 -28 -2 -8 -7 -17 -10 -20 -4 -3 -8 -12 -10 -20 -2
-8 -11 -23 -20 -34 -9 -10 -16 -19 -15 -20 8 -5 -11 -45 -19 -40 -5 3 -8 0 -7
-7 3 -16 -29 -81 -45 -91 -6 -4 -8 -8 -3 -8 4 0 1 -13 -8 -30 -8 -16 -14 -32
-13 -34 2 -2 -4 -12 -13 -22 -15 -18 -23 -34 -29 -59 -1 -5 -11 -22 -22 -37
-11 -16 -16 -28 -11 -28 4 0 3 -4 -2 -8 -11 -7 -38 -64 -35 -71 1 -2 -2 -7 -7
-10 -4 -3 -17 -23 -28 -43 -11 -21 -24 -38 -30 -38 -5 0 -3 -4 5 -10 12 -8 12
-10 -3 -16 -9 -3 -15 -10 -12 -14 3 -5 -1 -14 -8 -22 -7 -7 -14 -15 -14 -18
-3 -17 -27 -60 -34 -60 -4 0 -6 -9 -4 -20 2 -11 0 -20 -4 -20 -8 0 -19 -29
-19 -47 0 -3 -7 -10 -16 -15 -9 -5 -14 -13 -11 -19 4 -5 1 -9 -5 -9 -7 0 -9
-7 -6 -15 3 -9 -1 -18 -9 -21 -8 -4 -13 -10 -10 -14 3 -5 -2 -15 -10 -23 -8
-9 -15 -23 -15 -31 0 -9 -5 -16 -11 -16 -5 0 -7 -5 -4 -10 3 -6 0 -13 -8 -16
-9 -3 -13 -13 -10 -25 5 -16 8 -18 14 -7 5 7 9 9 9 3 0 -6 29 -10 67 -10 38 0
71 5 75 10 5 7 8 7 8 0 0 -5 11 -10 25 -10 14 0 25 3 25 6 0 4 16 3 35 -1 36
-8 53 5 69 58 4 12 12 22 17 22 5 0 8 3 7 8 -3 9 44 105 55 113 5 3 8 8 7 10
-3 6 23 63 31 69 4 3 17 30 30 60 12 30 26 57 29 60 3 3 12 20 19 38 8 17 17
32 22 32 5 0 9 3 8 8 -2 15 14 52 23 52 5 0 7 4 3 9 -3 5 1 15 8 23 13 13 28
43 33 66 1 7 8 20 15 29 7 8 14 20 15 27 1 6 15 34 31 61 16 28 35 65 42 83 7
17 18 32 24 32 6 0 7 3 4 6 -3 4 -1 16 5 28 7 11 11 24 10 29 -1 4 2 7 8 7 5
0 10 7 10 15 0 8 5 15 12 15 6 0 8 3 5 6 -3 4 -1 16 5 28 7 11 11 25 10 29 -1
4 5 10 13 13 8 4 15 10 15 16 0 14 93 202 103 209 5 4 6 12 3 18 -4 6 -1 11 8
11 8 0 21 -14 30 -30 9 -19 10 -28 3 -23 -6 4 -2 -6 11 -21 12 -16 22 -35 22
-43 0 -8 7 -21 15 -30 8 -8 13 -19 10 -24 -4 -5 -1 -9 6 -9 7 0 9 -3 6 -6 -3
-4 0 -16 8 -28 8 -11 15 -28 15 -38 0 -10 4 -18 9 -18 8 0 24 -37 22 -52 -1
-5 4 -8 10 -8 5 0 7 -4 4 -10 -3 -5 -1 -10 5 -10 6 0 8 -4 5 -10 -3 -5 -1 -10
6 -10 7 0 9 -3 6 -7 -4 -3 -2 -12 4 -20 6 -7 8 -13 5 -13 -4 0 3 -15 16 -32
13 -18 22 -34 20 -36 -1 -1 4 -15 12 -31 9 -16 12 -31 9 -35 -4 -3 -1 -6 6 -6
7 0 9 -4 6 -10 -3 -5 -1 -10 4 -10 6 0 11 -9 11 -20 0 -11 5 -20 12 -20 6 0 8
-3 5 -7 -4 -3 -1 -13 7 -22 8 -9 16 -25 18 -36 1 -11 6 -22 9 -25 10 -9 49
-100 49 -114 0 -8 3 -16 8 -18 4 -1 21 -31 39 -65 17 -35 26 -60 20 -56 -6 4
-2 -7 10 -23 11 -16 23 -38 27 -50 6 -21 5 -21 -209 -21 -118 0 -215 4 -215 8
0 4 13 33 29 63 16 31 24 53 18 49 -6 -4 -1 7 11 24 12 17 19 33 15 37 -3 3
-2 6 4 6 5 0 10 7 11 15 1 8 3 22 4 30 1 8 5 12 9 10 10 -7 27 46 23 72 -6 37
-9 48 -14 53 -5 5 -27 50 -74 150 -14 30 -25 49 -26 42 0 -8 -5 -10 -12 -6 -8
5 -9 2 -5 -9 3 -10 3 -17 -2 -17 -5 0 -11 -9 -14 -20 -8 -32 -9 -33 -33 -72
-13 -21 -24 -42 -24 -48 0 -5 -4 -10 -10 -10 -5 0 -9 -3 -8 -7 4 -12 -26 -73
-34 -73 -5 0 -8 -9 -8 -19 0 -11 -5 -23 -10 -26 -6 -4 -8 -11 -5 -16 4 -5 2
-9 -3 -9 -6 0 -20 -25 -33 -55 -13 -32 -27 -52 -33 -48 -6 3 -8 3 -4 -2 4 -4
-11 -41 -32 -81 -22 -41 -37 -74 -34 -74 3 0 -2 -7 -10 -16 -9 -8 -14 -19 -11
-24 3 -5 2 -10 -3 -12 -4 -1 -20 -30 -36 -63 -16 -33 -32 -68 -37 -77 -6 -13
-5 -18 3 -19 7 0 25 -2 41 -3 15 -1 27 2 27 6 0 4 6 5 13 2 26 -10 167 -9 167
1 0 7 3 7 8 0 9 -13 52 -15 52 -3 0 5 4 7 9 3 19 -11 71 -12 71 -1 0 7 3 7 8
1 4 -5 25 -10 47 -10 22 0 43 5 47 10 5 7 8 7 8 0 0 -5 11 -10 25 -10 14 0 25
4 25 8 0 5 4 6 9 2 19 -11 71 -12 71 -1 0 7 3 7 8 1 4 -5 39 -10 77 -10 39 0
73 5 77 10 5 7 8 7 8 0 0 -6 32 -10 75 -10 43 0 75 4 75 10 0 7 3 7 8 0 4 -5
39 -10 77 -10 39 0 73 5 77 10 5 7 8 6 8 0 0 -7 16 -9 38 -7 62 6 66 9 50 35
-8 12 -20 39 -27 60 -7 20 -17 37 -22 37 -5 0 -9 8 -9 18 0 9 -7 26 -15 36 -8
10 -12 23 -9 27 3 5 0 9 -6 9 -6 0 -8 5 -5 10 3 6 1 10 -5 10 -6 0 -8 5 -5 10
3 6 1 10 -4 10 -6 0 -11 6 -11 13 0 18 -24 67 -32 67 -5 0 -8 6 -8 13 0 8 -16
47 -36 88 -20 41 -36 75 -35 76 0 2 -17 37 -39 79 -22 43 -37 81 -34 86 3 4 1
8 -4 8 -10 0 -47 79 -44 93 1 4 -3 7 -9 7 -5 0 -7 5 -4 10 3 6 3 10 -2 10 -4
0 -19 27 -33 60 -14 33 -29 60 -33 60 -5 0 -7 6 -4 13 2 6 -3 18 -12 25 -11 9
-11 11 -2 6 9 -5 6 5 -7 23 -12 17 -22 38 -22 47 0 9 -5 16 -11 16 -5 0 -7 5
-4 10 3 6 1 10 -5 10 -6 0 -8 5 -5 10 3 6 1 10 -4 10 -6 0 -10 3 -9 8 4 14
-13 52 -24 52 -5 0 -8 7 -4 15 3 8 2 15 -3 15 -5 0 -12 10 -16 23 -4 12 -8 24
-9 27 -1 3 -16 33 -34 68 -18 34 -29 62 -26 62 4 0 0 8 -8 18 -15 17 -27 42
-24 52 0 3 -9 21 -22 41 -12 20 -19 39 -15 42 3 4 2 7 -3 7 -6 0 -16 16 -23
35 -14 39 2 36 -192 40 -59 2 -112 -1 -119 -5z"/>
<path d="M1503 2172 c-13 -2 -24 -10 -24 -18 -2 -19 -3 -24 -21 -64 -33 -74
-47 -110 -42 -110 3 0 -2 -7 -11 -16 -11 -11 -13 -20 -5 -28 5 -7 7 -16 3 -19
-3 -4 -1 -7 6 -7 7 0 9 -4 6 -10 -3 -5 -1 -10 5 -10 6 0 9 -4 5 -9 -3 -5 -1
-12 5 -16 6 -4 8 -11 5 -16 -4 -5 -1 -9 4 -9 6 0 11 -11 11 -24 0 -13 7 -26
15 -30 8 -3 14 -9 13 -13 -2 -13 20 -60 31 -68 10 -5 15 7 12 28 0 4 3 7 8 7
10 0 57 71 54 81 -1 3 7 10 17 17 17 10 20 9 26 -16 4 -15 18 -46 30 -68 13
-23 20 -44 17 -48 -4 -3 -1 -6 5 -6 6 0 14 -10 18 -22 4 -13 31 -74 60 -136
30 -63 54 -118 54 -123 0 -5 5 -9 11 -9 5 0 7 -4 4 -10 -3 -5 -1 -10 6 -10 7
0 10 -3 6 -6 -3 -4 6 -30 20 -58 15 -28 28 -53 28 -56 1 -3 13 -31 28 -62 15
-31 27 -62 27 -67 0 -6 4 -11 9 -11 5 0 12 -10 16 -22 3 -13 20 -52 37 -88 17
-36 39 -81 47 -100 9 -19 21 -38 26 -42 6 -4 7 -8 3 -8 -4 0 1 -16 12 -35 11
-20 20 -42 20 -50 0 -8 5 -15 10 -15 6 0 10 -9 10 -20 0 -11 4 -20 8 -20 5 0
14 -18 21 -40 6 -22 16 -40 22 -40 6 0 8 -4 4 -9 -3 -5 -1 -12 5 -16 6 -4 8
-11 5 -16 -4 -5 -1 -9 5 -9 6 0 9 -3 7 -8 -3 -4 1 -13 9 -20 8 -7 14 -8 14 -3
0 6 6 8 13 5 26 -10 167 -9 167 1 0 7 3 7 8 0 4 -5 16 -10 27 -10 11 0 23 5
28 10 4 6 10 5 16 -4 7 -11 9 -11 13 0 5 14 -40 109 -57 121 -5 4 -7 8 -2 8 4
0 0 15 -10 33 -9 17 -17 34 -18 37 0 3 -5 12 -10 20 -22 33 -53 109 -47 114 3
3 0 6 -7 6 -7 0 -9 5 -6 10 3 6 2 10 -4 10 -10 0 -27 38 -23 53 1 4 -3 7 -9 7
-5 0 -7 5 -4 10 3 6 1 10 -4 10 -6 0 -11 8 -11 19 0 10 -7 24 -15 31 -9 7 -13
15 -11 18 3 2 -2 11 -10 19 -8 8 -12 19 -9 24 4 5 1 9 -5 9 -6 0 -8 5 -5 10 3
6 1 10 -5 10 -7 0 -10 7 -6 15 3 8 2 15 -2 15 -8 0 -57 101 -54 113 1 4 -2 7
-7 7 -5 0 -12 14 -16 30 -4 17 -13 37 -22 45 -8 9 -16 21 -17 28 -2 6 -16 39
-31 72 -16 33 -28 63 -27 68 1 4 -3 7 -8 7 -6 0 -10 7 -10 15 0 8 -5 15 -11
15 -5 0 -8 4 -4 10 5 8 -12 48 -26 60 -3 3 -9 17 -12 32 -4 15 -14 34 -23 42
-8 9 -12 20 -9 26 3 5 3 10 -2 10 -7 0 -37 57 -37 70 0 3 -12 27 -28 53 -15
26 -28 52 -28 56 0 8 -47 104 -65 131 -9 15 -15 34 -17 58 -1 6 -5 12 -10 12
-4 0 -8 6 -8 14 0 8 -6 16 -14 19 -20 8 -163 3 -172 -5 -3 -4 -14 -4 -23 0 -9
5 -26 6 -38 4z"/>
</g>
</svg>
