<svg xmlns="http://www.w3.org/2000/svg" width="17.45" height="13.048" viewBox="0 0 17.45 13.048">
  <path id="Tracé_323" data-name="Tracé 323" d="M93.36,192.008c-1.9-4-4.765-6.008-8.609-6.008s-6.712,2.011-8.609,6.01a1.207,1.207,0,0,0,0,1.031c1.9,4,4.765,6.008,8.609,6.008s6.712-2.011,8.609-6.01A1.207,1.207,0,0,0,93.36,192.008Zm-8.609,5.6c-3.228,0-5.591-1.637-7.258-5.083,1.667-3.446,4.03-5.083,7.258-5.083s5.591,1.637,7.258,5.083C90.344,195.97,87.98,197.607,84.75,197.607ZM84.67,189a3.522,3.522,0,1,0,3.522,3.522A3.522,3.522,0,0,0,84.67,189Zm0,5.764a2.241,2.241,0,1,1,2.241-2.241A2.24,2.24,0,0,1,84.67,194.765Z" transform="translate(-76.026 -186)" fill="#0570a6"/>
</svg>
