<svg xmlns="http://www.w3.org/2000/svg" width="85.58" height="80.44" viewBox="0 0 85.58 80.44"><g transform="translate(0 0)"><path d="M82.206,26.331H74.523a13.007,13.007,0,0,0-25.688,0h-7.68a3.379,3.379,0,0,0-3.375,3.375V57.9h-1.04a13,13,0,0,0-25.683,0H3.375A3.379,3.379,0,0,0,0,61.278V92.442a3.379,3.379,0,0,0,3.375,3.375h41.05A3.379,3.379,0,0,0,47.8,92.442v-28.2H72.226a1.255,1.255,0,0,0,0-2.509H47.8v-.457A3.379,3.379,0,0,0,44.425,57.9H40.29V43.128c1.217.251,3.1.628,5.447,1.055v1.138a3.122,3.122,0,0,0,3.118,3.118H50.3a3.119,3.119,0,0,0,3.111-2.983,58.7,58.7,0,0,0,8.27.589,58.7,58.7,0,0,0,8.27-.589,3.119,3.119,0,0,0,3.111,2.983h1.445a3.122,3.122,0,0,0,3.118-3.118V44.183c2.343-.427,4.231-.8,5.447-1.055V60.87a.867.867,0,0,1-.866.866H78.08a1.255,1.255,0,1,0,0,2.509h4.125A3.379,3.379,0,0,0,85.58,60.87V29.706a3.378,3.378,0,0,0-3.374-3.375ZM23.9,49.458A10.515,10.515,0,0,1,34.195,57.9H31.38a7.757,7.757,0,0,0-14.96,0H13.6a10.517,10.517,0,0,1,10.3-8.445ZM28.729,57.9H19.071a5.248,5.248,0,0,1,9.659,0ZM45.291,92.442a.867.867,0,0,1-.866.866H3.375a.867.867,0,0,1-.866-.866V74.7c1.216.251,3.1.628,5.447,1.055v1.138a3.122,3.122,0,0,0,3.118,3.118h1.445a3.119,3.119,0,0,0,3.111-2.983,58.394,58.394,0,0,0,16.539,0,3.119,3.119,0,0,0,3.111,2.983h1.445a3.122,3.122,0,0,0,3.118-3.118V75.755c2.343-.427,4.231-.8,5.447-1.055V92.442ZM10.465,76.893V73.249a.61.61,0,0,1,.609-.609h1.445a.61.61,0,0,1,.609.609v3.644a.61.61,0,0,1-.609.609H11.074a.609.609,0,0,1-.609-.609Zm24.207,0V73.249a.61.61,0,0,1,.609-.609h1.445a.61.61,0,0,1,.609.609v3.644a.61.61,0,0,1-.609.609H35.281A.609.609,0,0,1,34.672,76.893Zm9.753-16.481a.867.867,0,0,1,.866.866V72.137c-1.077.226-2.984.614-5.449,1.067a3.121,3.121,0,0,0-3.116-3.073H35.281a3.122,3.122,0,0,0-3.118,3.118v1.245a56.154,56.154,0,0,1-16.526,0V73.25a3.122,3.122,0,0,0-3.118-3.118H11.074A3.12,3.12,0,0,0,7.958,73.2c-2.464-.453-4.372-.842-5.449-1.067V61.278a.867.867,0,0,1,.866-.866ZM61.68,17.886a10.513,10.513,0,0,1,10.292,8.445H69.16a7.756,7.756,0,0,0-14.959,0H51.386A10.515,10.515,0,0,1,61.68,17.886Zm4.829,8.445H56.851a5.248,5.248,0,0,1,9.659,0Zm-15.6,18.99a.61.61,0,0,1-.609.609H48.855a.61.61,0,0,1-.609-.609V41.677a.61.61,0,0,1,.609-.609H50.3a.61.61,0,0,1,.609.609Zm24.207,0a.61.61,0,0,1-.609.609H73.062a.61.61,0,0,1-.609-.609V41.677a.61.61,0,0,1,.609-.609h1.445a.61.61,0,0,1,.609.609Zm7.956-4.756c-1.077.226-2.985.614-5.449,1.067a3.121,3.121,0,0,0-3.116-3.073H73.062a3.122,3.122,0,0,0-3.118,3.118v1.245a56.143,56.143,0,0,1-16.526,0V41.678A3.122,3.122,0,0,0,50.3,38.559H48.855a3.12,3.12,0,0,0-3.116,3.073c-2.464-.453-4.372-.842-5.449-1.067V29.706a.867.867,0,0,1,.866-.866h41.05a.867.867,0,0,1,.866.866Z" transform="translate(0 -15.377)" fill="#1e1e1e"/><path d="M341.3,332.5a4.092,4.092,0,0,0-6.507-.012l-5.477,7.156a4.094,4.094,0,0,0,4.635,6.337v2.859A1.556,1.556,0,0,1,332.4,350.4h-6.823a4.091,4.091,0,1,0,0,8.183H332.4a9.748,9.748,0,0,0,9.737-9.737v-2.826a4.118,4.118,0,0,0,1.36.229,4.091,4.091,0,0,0,3.257-6.566Zm3.148,10.912a1.529,1.529,0,0,1-2.217-.3l-.354-.466a1.255,1.255,0,0,0-2.254.759v5.439a7.235,7.235,0,0,1-7.227,7.227h-6.823a1.582,1.582,0,1,1,0-3.164H332.4a4.068,4.068,0,0,0,4.063-4.063v-5.492a1.255,1.255,0,0,0-2.251-.763,2.3,2.3,0,0,1-1.436,1.113,1.582,1.582,0,0,1-1.465-2.53l5.477-7.156a1.582,1.582,0,0,1,2.517,0l5.45,7.177A1.583,1.583,0,0,1,344.447,343.414Z" transform="translate(-267.746 -278.149)" fill="#1e1e1e"/><path d="M65.806,41.454a4.092,4.092,0,0,0,6.507.012L77.79,34.31a4.094,4.094,0,0,0-4.635-6.338V25.114a1.556,1.556,0,0,1,1.554-1.554h6.823a4.091,4.091,0,0,0,0-8.183H79a1.255,1.255,0,0,0,0,2.509h2.531a1.582,1.582,0,0,1,0,3.164H74.709a4.068,4.068,0,0,0-4.063,4.063v5.492a1.255,1.255,0,0,0,2.251.763l.387-.506a1.608,1.608,0,0,1,2.218-.295,1.584,1.584,0,0,1,.3,2.218l-5.477,7.156a1.582,1.582,0,0,1-2.517,0l-5.45-7.177a1.582,1.582,0,0,1,2.52-1.914l.354.466a1.255,1.255,0,0,0,2.254-.759V25.113A7.217,7.217,0,0,1,73.441,18,1.255,1.255,0,1,0,73,15.527a9.723,9.723,0,0,0-8.029,9.587v2.826a4.119,4.119,0,0,0-1.36-.229,4.091,4.091,0,0,0-3.257,6.566Z" transform="translate(-49.575 -15.377)" fill="#1e1e1e"/></g></svg>