<svg xmlns="http://www.w3.org/2000/svg" width="68.602" height="82.322" viewBox="0 0 68.602 82.322"><g transform="translate(0)"><path d="M41.7,50.161H33.464a1.372,1.372,0,0,1-1.372-1.372V43.64c-.2-.078-.388-.158-.575-.239l-3.641,3.641a1.372,1.372,0,0,1-.97.4h0a1.372,1.372,0,0,1-.97-.4l-5.818-5.818a1.372,1.372,0,0,1,0-1.94l3.641-3.643c-.082-.185-.161-.376-.239-.574H18.372A1.372,1.372,0,0,1,17,33.7V25.464a1.372,1.372,0,0,1,1.372-1.372h5.149c.078-.2.156-.388.239-.575l-3.641-3.641a1.372,1.372,0,0,1,0-1.94l5.817-5.817a1.412,1.412,0,0,1,1.94,0l3.641,3.641c.187-.081.377-.161.575-.239V10.372A1.372,1.372,0,0,1,33.464,9H41.7a1.372,1.372,0,0,1,1.372,1.372v5.149c.2.078.388.158.575.239l3.641-3.641a1.372,1.372,0,0,1,.97-.4h0a1.372,1.372,0,0,1,.97.4l5.818,5.818a1.372,1.372,0,0,1,0,1.94L51.4,23.518c.082.187.161.377.239.575h5.149a1.372,1.372,0,0,1,1.372,1.372V33.7a1.372,1.372,0,0,1-1.372,1.372H51.64c-.078.2-.156.388-.239.574l3.641,3.643a1.372,1.372,0,0,1,0,1.94l-5.817,5.817a1.412,1.412,0,0,1-1.94,0L43.644,43.4c-.187.081-.377.161-.575.239v5.149A1.372,1.372,0,0,1,41.7,50.161Zm-6.86-2.744h5.488V42.67a1.372,1.372,0,0,1,.951-1.306,11.13,11.13,0,0,0,1.984-.83,1.372,1.372,0,0,1,1.63.233l3.366,3.366,3.876-3.877-3.364-3.366a1.372,1.372,0,0,1-.233-1.629,11.285,11.285,0,0,0,.83-1.984,1.372,1.372,0,0,1,1.306-.952h4.747V26.836H50.67a1.372,1.372,0,0,1-1.306-.952,11.284,11.284,0,0,0-.83-1.984,1.372,1.372,0,0,1,.233-1.629l3.364-3.366-3.876-3.877-3.366,3.366a1.372,1.372,0,0,1-1.63.233,11.13,11.13,0,0,0-1.984-.823,1.372,1.372,0,0,1-.951-1.313V11.744H34.836v4.747a1.372,1.372,0,0,1-.951,1.306,11.13,11.13,0,0,0-1.984.823,1.372,1.372,0,0,1-1.63-.233l-3.366-3.359-3.869,3.877L26.4,22.272a1.372,1.372,0,0,1,.233,1.629,11.285,11.285,0,0,0-.83,1.984,1.372,1.372,0,0,1-1.313.952H19.744v5.488h4.747a1.372,1.372,0,0,1,1.306.952,11.285,11.285,0,0,0,.83,1.984,1.372,1.372,0,0,1-.233,1.629l-3.357,3.366,3.876,3.877,3.366-3.366a1.372,1.372,0,0,1,1.63-.233,11.13,11.13,0,0,0,1.984.83,1.372,1.372,0,0,1,.944,1.306Z" transform="translate(-3.279 0.604)" fill="#1e1e1e"/><path d="M34.232,34.464a8.232,8.232,0,1,1,8.232-8.232A8.232,8.232,0,0,1,34.232,34.464Zm0-13.72a5.488,5.488,0,1,0,5.488,5.488A5.488,5.488,0,0,0,34.232,20.744Z" transform="translate(0.069 3.953)" fill="#1e1e1e"/><path d="M74.23,62.37A1.372,1.372,0,0,0,75.6,61V3.372A1.372,1.372,0,0,0,74.23,2h-59A8.24,8.24,0,0,0,7,10.232V67.858a8.24,8.24,0,0,0,8.232,8.232h4.116v6.86a1.372,1.372,0,0,0,2.342.97L26.209,79.4l4.518,4.518a1.372,1.372,0,0,0,2.342-.97V76.09H74.23a1.372,1.372,0,0,0,0-2.744,5.488,5.488,0,0,1,0-10.976ZM30.325,79.638l-3.146-3.146a1.372,1.372,0,0,0-1.94,0l-3.146,3.146V69.23h8.232Zm37.786-6.292H33.069V69.23H61.881a1.372,1.372,0,0,0,0-2.744H13.86a1.372,1.372,0,1,0,0,2.744h5.488v4.116H15.232a5.488,5.488,0,1,1,0-10.976H68.111a8.184,8.184,0,0,0,0,10.976ZM15.232,59.626a8.221,8.221,0,0,0-5.488,2.1V10.232a5.488,5.488,0,0,1,5.488-5.488H72.858V59.626Z" transform="translate(-7 -2)" fill="#1e1e1e"/></g></svg>