<svg xmlns="http://www.w3.org/2000/svg" width="40.933" height="47.959" viewBox="0 0 40.933 47.959">
  <g id="secret-file" transform="translate(-37.5 0)">
    <path id="Tracé_93" data-name="Tracé 93" d="M165.672,98.76l-.054,0a4.967,4.967,0,0,1-3.6-1.678L162,97.06a.724.724,0,0,0-1.162.01l-.014.018a4.966,4.966,0,0,1-3.594,1.669l-.056,0a.855.855,0,0,0-.892.86,9.46,9.46,0,0,0,4.709,9.062.75.75,0,0,0,.431.141.758.758,0,0,0,.435-.143,9.462,9.462,0,0,0,4.708-9.068A.86.86,0,0,0,165.672,98.76Zm-4.248,8.517a7.93,7.93,0,0,1-3.752-7.154,6.343,6.343,0,0,0,3.753-1.636,6.341,6.341,0,0,0,3.753,1.637A7.932,7.932,0,0,1,161.423,107.277Z" transform="translate(-107.64 -87.708)" fill="#fff"/>
    <path id="Tracé_94" data-name="Tracé 94" d="M305.546,97.45h-6.084a.7.7,0,0,0,0,1.405h6.084a.7.7,0,0,0,0-1.405Z" transform="translate(-236.787 -88.322)" fill="#fff"/>
    <path id="Tracé_95" data-name="Tracé 95" d="M305.546,133.847h-6.084a.7.7,0,0,0,0,1.405h6.084a.7.7,0,0,0,0-1.405Z" transform="translate(-236.787 -121.31)" fill="#fff"/>
    <path id="Tracé_96" data-name="Tracé 96" d="M305.546,170.242h-6.084a.7.7,0,0,0,0,1.405h6.084a.7.7,0,0,0,0-1.405Z" transform="translate(-236.787 -154.296)" fill="#fff"/>
    <path id="Tracé_97" data-name="Tracé 97" d="M75.282,20.558l-1.228,0V5.754a1.57,1.57,0,0,0-1.57-1.567h-.338V1.713A1.716,1.716,0,0,0,70.431,0H41.585a1.716,1.716,0,0,0-1.716,1.713V26.328A2.686,2.686,0,0,0,37.5,28.992v13.6a2.686,2.686,0,0,0,2.683,2.683H45.94a.7.7,0,0,0,0-1.405H40.183a1.279,1.279,0,0,1-1.278-1.278v-13.6a1.279,1.279,0,0,1,1.278-1.278h17c1.446,0,3.241,0,3.594-2.075l.9-2.714c.31-.941.667-.942,1.16-.944l12.446-.019a1.747,1.747,0,0,1,1.745,1.745V42.594a1.279,1.279,0,0,1-1.278,1.278H74.476V36.794a2.645,2.645,0,0,0-2.642-2.642h-.146V32.3a3.258,3.258,0,0,0-3.253-3.255H64.374A3.259,3.259,0,0,0,61.118,32.3v1.848h-.146a2.645,2.645,0,0,0-2.642,2.642v7.078H49.606a.7.7,0,0,0,0,1.405H58.33v.04a2.645,2.645,0,0,0,2.642,2.642H71.833a2.645,2.645,0,0,0,2.642-2.642v-.04h1.275a2.686,2.686,0,0,0,2.683-2.683V23.708a3.154,3.154,0,0,0-3.151-3.15Zm-12.448.019a2.358,2.358,0,0,0-2.491,1.908l-.916,2.766a.7.7,0,0,0-.027.114c-.123.8-.455.944-2.215.944H45.651V5.754a.166.166,0,0,1,.165-.162h7.07a.7.7,0,1,0,0-1.405h-7.07a1.57,1.57,0,0,0-1.57,1.567V26.309H41.274V1.713a.313.313,0,0,1,.311-.308H70.431a.313.313,0,0,1,.311.308V4.187H56.188a.7.7,0,1,0,0,1.405h16.3a.166.166,0,0,1,.165.162V20.562ZM62.523,32.3a1.852,1.852,0,0,1,1.851-1.85h4.061a1.851,1.851,0,0,1,1.848,1.85v1.848H62.523V32.3ZM73.071,45.317a1.239,1.239,0,0,1-1.237,1.237H60.972a1.239,1.239,0,0,1-1.237-1.237V36.794a1.239,1.239,0,0,1,1.237-1.237H71.833a1.239,1.239,0,0,1,1.237,1.237Z" fill="#fff"/>
    <path id="Tracé_98" data-name="Tracé 98" d="M322.77,406.529a2.409,2.409,0,0,0-.7,4.712v1.48a.7.7,0,0,0,1.405,0v-1.48a2.409,2.409,0,0,0-.7-4.712Zm0,3.412a1,1,0,1,1,1-1A1,1,0,0,1,322.77,409.941Z" transform="translate(-256.367 -368.45)" fill="#fff"/>
  </g>
</svg>
