<svg xmlns="http://www.w3.org/2000/svg" width="80.014" height="80.44" viewBox="0 0 80.014 80.44"><g transform="translate(0)"><rect width="2.667" height="2.667" transform="translate(18.67 31.098)" fill="#1e1e1e"/><rect width="2.667" height="2.667" transform="translate(32.005 31.098)" fill="#1e1e1e"/><path d="M80.869,47.461l-5.21-.744a18.667,18.667,0,0,0-.876-2.134l3.153-4.2a1.334,1.334,0,0,0-.124-1.743l-5.658-5.658a1.319,1.319,0,0,0-.808-.377V19.764a10.668,10.668,0,0,0,4-8.323,10.558,10.558,0,0,0-6.1-9.634,1.334,1.334,0,0,0-1.9,1.206v7.468l-2.667.889-2.667-.889V3.013a1.334,1.334,0,0,0-1.9-1.2,10.558,10.558,0,0,0-6.1,9.628,10.668,10.668,0,0,0,4,8.323v9.014h-4a1.334,1.334,0,0,0-1.32,1.144l-.863,6.04,2.64.377.7-4.894h5.689l.7,4.894A1.334,1.334,0,0,0,62.5,37.43a15.922,15.922,0,0,1,3.2,1.316,1.334,1.334,0,0,0,1.442-.1l3.949-2.96L75.112,39.7l-2.967,3.949a1.334,1.334,0,0,0-.1,1.442,15.921,15.921,0,0,1,1.316,3.2,1.334,1.334,0,0,0,1.091.947l4.894.7V55.63l-4.894.7a1.334,1.334,0,0,0-1.091.947,15.921,15.921,0,0,1-1.316,3.2,1.334,1.334,0,0,0,.1,1.442l2.96,3.949-4.022,4.022-3.946-2.971a1.334,1.334,0,0,0-1.442-.1,15.921,15.921,0,0,1-3.2,1.316,1.334,1.334,0,0,0-.947,1.091l-.695,4.9H55.342v-5.64a14.8,14.8,0,0,0-.6-4.162A12.149,12.149,0,1,0,46.215,54.9c-.032-.013-.063-.029-.095-.041L35.339,50.545V48.5a14.788,14.788,0,0,0,4.639-3.715H43.34a4,4,0,0,0,4-4V37.867a4,4,0,0,0,2.667-3.755v-4a4,4,0,0,0-2.667-3.755V24.777a18.67,18.67,0,1,0-37.34,0v1.579a4,4,0,0,0-2.667,3.755v4a4,4,0,0,0,4,4H14c.085,0,.168-.013.252-.019A14.7,14.7,0,0,0,22,48.5v2.05L11.222,54.858A14.6,14.6,0,0,0,2,68.479V80.787A1.334,1.334,0,0,0,3.334,82.12H54.009a1.334,1.334,0,0,0,1.334-1.334v-4H62.01a1.334,1.334,0,0,0,1.32-1.144l.744-5.21a18.668,18.668,0,0,0,2.134-.876l4.2,3.153a1.334,1.334,0,0,0,1.743-.124l5.658-5.658a1.334,1.334,0,0,0,.124-1.743l-3.153-4.2a18.671,18.671,0,0,0,.876-2.134l5.21-.744a1.334,1.334,0,0,0,1.143-1.319v-8a1.334,1.334,0,0,0-1.144-1.32ZM66.2,36.008c-.063-.031-.133-.051-.2-.08V19.443h-2.66V30.018l-.013-.1a1.334,1.334,0,0,0-1.32-1.144H60.677V19.1A1.334,1.334,0,0,0,60.1,18,8,8,0,0,1,59.343,5.47v5.972a1.334,1.334,0,0,0,.912,1.266l4,1.333a1.334,1.334,0,0,0,.843,0l4-1.334a1.334,1.334,0,0,0,.912-1.266V5.47a8,8,0,0,1-.761,12.535,1.334,1.334,0,0,0-.572,1.091v15.06ZM48.675,52.782A9.4,9.4,0,1,1,53.119,60.7a14.557,14.557,0,0,0-3.482-3.837,9.116,9.116,0,0,1-.963-4.086ZM43.34,42.113H41.721a14.536,14.536,0,0,0,1.367-4.019c.084,0,.167.019.252.019h1.334V40.78A1.334,1.334,0,0,1,43.34,42.113ZM40.673,27.444a4.021,4.021,0,0,1-3.2-1.6l-2.4-3.2a1.334,1.334,0,0,0-.9-.523,1.348,1.348,0,0,0-1,.281L28.7,25.977a6.692,6.692,0,0,1-4.159,1.467H16.669V26.111a12,12,0,1,1,24,0Zm6.668,6.668a1.334,1.334,0,0,1-1.334,1.334H43.34V28.778h2.667a1.334,1.334,0,0,1,1.334,1.334ZM28.671,8.774a16.02,16.02,0,0,1,16,16v1.334H43.34a14.669,14.669,0,1,0-29.338,0H12.668V24.777a16.02,16.02,0,0,1,16-16ZM11.335,35.446A1.334,1.334,0,0,1,10,34.112v-4a1.334,1.334,0,0,1,1.334-1.334H14v6.668Zm5.334,0V30.111h7.868a9.367,9.367,0,0,0,5.83-2.046l3.4-2.722,1.57,2.1a6.7,6.7,0,0,0,5.334,2.667v5.334a11.931,11.931,0,0,1-2.03,6.668H28.671v2.667H36.2a11.99,11.99,0,0,1-19.529-9.335Zm12,14.669a14.624,14.624,0,0,0,4-.568v1.9a4,4,0,0,1-8,0v-1.9A14.624,14.624,0,0,0,28.671,50.115Zm24,29.338h-8V64.784H42.007V79.453H15.336V64.784H12.668V79.453h-8V68.479a11.946,11.946,0,0,1,7.545-11.145L22.3,53.3a6.625,6.625,0,0,0,12.746,0L45.13,57.335a11.946,11.946,0,0,1,7.545,11.145Z" transform="translate(-2 -1.68)" fill="#1e1e1e"/><rect width="2.667" height="2.667" transform="translate(54.676 32.432)" fill="#1e1e1e"/><rect width="2.667" height="2.667" transform="translate(54.676 67.104)" fill="#1e1e1e"/><rect width="2.667" height="2.667" transform="translate(66.381 63.36) rotate(-45)" fill="#1e1e1e"/><rect width="2.667" height="2.667" transform="translate(72.012 49.768)" fill="#1e1e1e"/><rect width="2.667" height="2.667" transform="translate(66.382 38.844) rotate(-45)" fill="#1e1e1e"/></g></svg>