<svg xmlns="http://www.w3.org/2000/svg" viewBox="0 0 41 41"><defs><style>.cls-1{fill:#0570a6;}.cls-2{fill:#fff;}</style></defs><g id="Calque_2" data-name="Calque 2"><g id="Calque_1-2" data-name="Calque 1"><circle class="cls-1" cx="14.59" cy="14.59" r="14.09"/><path class="cls-2" d="M14.59,29.17A14.59,14.59,0,1,1,29.17,14.59,14.6,14.6,0,0,1,14.59,29.17ZM14.59,1A13.59,13.59,0,1,0,28.17,14.59,13.61,13.61,0,0,0,14.59,1Z"/><circle class="cls-1" cx="26.41" cy="26.41" r="14.09"/><path class="cls-2" d="M26.41,41A14.59,14.59,0,1,1,41,26.41,14.6,14.6,0,0,1,26.41,41Zm0-28.17A13.59,13.59,0,1,0,40,26.41,13.59,13.59,0,0,0,26.41,12.83Z"/><path class="cls-2" d="M15.93,17.65a3.55,3.55,0,0,1-2,.56A3.45,3.45,0,0,1,11.27,17a4.11,4.11,0,0,1-.95-2.28H9.5v-.64h.75v-.2a5.74,5.74,0,0,1,0-.6H9.5v-.66h.87a4.16,4.16,0,0,1,1.09-2.23,3.44,3.44,0,0,1,2.61-1.1,3.71,3.71,0,0,1,1.76.42l-.26.87a3.15,3.15,0,0,0-1.48-.37,2.29,2.29,0,0,0-1.75.73,3.08,3.08,0,0,0-.79,1.68h3.69v.66H11.43c0,.17,0,.37,0,.56v.24h3.84v.64H11.5a3.21,3.21,0,0,0,.72,1.74,2.53,2.53,0,0,0,1.87.76,3.43,3.43,0,0,0,1.61-.43Z"/><path class="cls-2" d="M22.34,24.86a1.14,1.14,0,0,0-1,.47A2.22,2.22,0,0,0,21,26.65c0,1.17.44,1.76,1.32,1.76a4.11,4.11,0,0,0,1.35-.28v.94a3.78,3.78,0,0,1-1.45.27,2.2,2.2,0,0,1-1.76-.7,3,3,0,0,1-.6-2,3.38,3.38,0,0,1,.29-1.43,2.21,2.21,0,0,1,.86-.95,2.55,2.55,0,0,1,1.31-.33,3.62,3.62,0,0,1,1.54.37l-.36.91a6.14,6.14,0,0,0-.59-.25A2,2,0,0,0,22.34,24.86Z"/><path class="cls-2" d="M29.11,29.27H28V27H25.92v2.27H24.8V24h1.12v2.06H28V24h1.11Z"/><path class="cls-2" d="M31.54,29.27h-1.1V24h3v.91H31.54v1.36h1.78v.91H31.54Z"/></g></g></svg>