<svg xmlns="http://www.w3.org/2000/svg" width="44.049" height="43.737" viewBox="0 0 44.049 43.737">
  <g id="electric-scooter" opacity="0.83">
    <path id="Tracé_41" data-name="Tracé 41" d="M41.475,38.074V5.682a3.859,3.859,0,0,0-3.855-3.855H35.047a1.281,1.281,0,0,0,0,2.563h2.573a1.293,1.293,0,0,1,1.292,1.292v6.439H37.7a3.939,3.939,0,0,0-3.935,3.935V26.189A3.939,3.939,0,0,0,37.7,30.123h1.212v7.951a3.873,3.873,0,0,0-2.354,2.354H15.65A9,9,0,0,0,.375,35.344a1.281,1.281,0,0,0,1.812,1.812,6.439,6.439,0,0,1,10.863,3.272H10.375a3.855,3.855,0,1,0,0,2.563H36.559a3.854,3.854,0,1,0,4.916-4.916ZM40.194,43a1.292,1.292,0,1,1,1.292-1.292A1.293,1.293,0,0,1,40.194,43ZM36.329,26.189V16.055A1.374,1.374,0,0,1,37.7,14.683h1.212V27.561H37.7A1.374,1.374,0,0,1,36.329,26.189ZM5.448,41.709A1.292,1.292,0,1,1,6.74,43,1.293,1.293,0,0,1,5.448,41.709Z" transform="translate(0 -1.827)" fill="#f2142b"/>
  </g>
</svg>
