<svg xmlns="http://www.w3.org/2000/svg" viewBox="0 0 15.78 11.86"><defs><style>.cls-1{fill:#003673;}.cls-2{fill:#fff;}.cls-3{fill:#ec171d;}</style></defs><g id="Calque_2" data-name="Calque 2"><g id="FLAGS"><path class="cls-1" d="M15.78,11.19C10.52,13.51,5.26,8.88,0,11.19V.67C5.26-1.65,10.52,3,15.78.67Z"/><path class="cls-2" d="M15.78.67A7.78,7.78,0,0,1,14,1.21,20.73,20.73,0,0,1,9.21,4.13V1L6.58.39V3.56A23.8,23.8,0,0,0,1.82.12,8,8,0,0,0,0,.67v1.2A11.64,11.64,0,0,1,4.11,4,8.56,8.56,0,0,0,0,4.61V7.24a8.43,8.43,0,0,1,4.1-.63A17.49,17.49,0,0,0,0,10v1.2a8,8,0,0,1,1.82-.54A20.88,20.88,0,0,1,6.58,7.74v3.17c.88.18,1.75.39,2.63.57V8.3A24.09,24.09,0,0,0,14,11.74a7.82,7.82,0,0,0,1.81-.55V10a11.57,11.57,0,0,1-4.1-2.09,8.54,8.54,0,0,0,4.1-.64V4.62a8.54,8.54,0,0,1-4.1.64,17.71,17.71,0,0,0,4.1-3.38Z"/><path class="cls-3" d="M8.69,11.37,7.1,11V.5L8.69.84Z"/><path class="cls-3" d="M0,6.72V5.13c5.26-2.3,10.51,2.32,15.77,0v1.6C10.52,9,5.27,4.42,0,6.72Z"/><path class="cls-3" d="M9.87,7.65c2,1.67,3.94,3.1,5.91,3.54V10.4a12.6,12.6,0,0,1-4.73-2.57C10.65,7.79,10.26,7.72,9.87,7.65Z"/><path class="cls-3" d="M9.21,4.9,9.87,5A18.36,18.36,0,0,0,15.78.67a7.88,7.88,0,0,1-1.18.41A19.79,19.79,0,0,1,9.21,4.55Z"/><path class="cls-3" d="M5.93,6.84A18.28,18.28,0,0,0,0,11.19a8.29,8.29,0,0,1,1.18-.41A19.66,19.66,0,0,1,6.58,7.32V7Z"/><path class="cls-3" d="M0,1.45A12.69,12.69,0,0,1,4.74,4c.4,0,.79.11,1.19.18C4,2.54,2,1.12,0,.66Z"/></g></g></svg>