<svg id="house" xmlns="http://www.w3.org/2000/svg" width="84.759" height="75.617" viewBox="0 0 84.759 75.617">
  <g id="Groupe_105" data-name="Groupe 105" transform="translate(0)">
    <g id="Groupe_104" data-name="Groupe 104" transform="translate(0 0)">
      <path id="Tracé_116" data-name="Tracé 116" d="M84.116,60,68.477,46.649c.018-.091.037-.183.055-.292V28.891a1.947,1.947,0,0,0-1.882-1.918H57.917a1.9,1.9,0,0,0-1.827,1.918v7.235L43.575,25.456a1.827,1.827,0,0,0-2.375,0L.66,59.986A1.829,1.829,0,1,0,3,62.8l.037-.037L42.388,29.257l14.086,12L64.9,48.421l16.863,14.36a1.825,1.825,0,0,0,2.576-.2A1.844,1.844,0,0,0,84.116,60ZM64.859,43.562,59.744,39.25v-8.6h5.115Z" transform="translate(0 -25.018)" fill="#fcfcfc"/>
    </g>
  </g>
  <g id="Groupe_107" data-name="Groupe 107" transform="translate(8.077 10.487)">
    <g id="Groupe_106" data-name="Groupe 106">
      <path id="Tracé_117" data-name="Tracé 117" d="M112.19,110.608l-5.134-4.385L79.707,82.856a1.827,1.827,0,0,0-2.375,0L49.982,106.223l-5.134,4.385a1.825,1.825,0,0,0-.2,2.576,1.778,1.778,0,0,0,2.521.219l.018-.018,2.284-1.973v34.255a1.928,1.928,0,0,0,1.882,1.882h54.315a1.915,1.915,0,0,0,1.882-1.882V111.412l2.284,1.973a1.817,1.817,0,0,0,1.169.438,1.847,1.847,0,0,0,1.388-.639A1.806,1.806,0,0,0,112.19,110.608ZM85.827,143.877H71.212V124.146H85.827Zm3.654,0v-21.5a1.819,1.819,0,0,0-1.754-1.882H69.312a1.819,1.819,0,0,0-1.754,1.882v21.5H53.125V108.288L78.519,86.657l25.395,21.631v35.589Z" transform="translate(-44.208 -82.418)" fill="#fcfcfc"/>
    </g>
  </g>
</svg>
