<svg xmlns="http://www.w3.org/2000/svg" width="81.476" height="82.139" viewBox="0 0 81.476 82.139"><g transform="translate(0)"><g transform="translate(0)"><path d="M74.178,27.183l9.015-9.088a1.2,1.2,0,0,0-.281-1.905L53.314.147A1.2,1.2,0,0,0,51.89.354L42.8,9.44,33.718.355A1.192,1.192,0,0,0,32.295.148L22.788,5.3a1.2,1.2,0,0,0,.574,2.262,1.211,1.211,0,0,0,.573-.146L32.651,2.69l8.161,8.161L13.345,25.7,5.253,17.539,19.7,9.707a1.2,1.2,0,0,0,.484-1.63,1.2,1.2,0,0,0-1.057-.63,1.215,1.215,0,0,0-.573.146L2.7,16.19a1.2,1.2,0,0,0-.281,1.9l9.014,9.089L2.415,36.271A1.2,1.2,0,0,0,2.7,38.176l9.227,5V64.89a1.177,1.177,0,0,0,.006.124c0,.017.005.034.008.052s.005.042.01.063.012.052.019.077.006.024.009.035.017.051.027.076.008.023.012.034.02.044.031.066.013.027.02.041.02.035.031.052.019.033.03.049.019.026.028.039.027.038.042.056l.026.029c.017.02.034.039.052.058l.03.028c.018.017.036.035.056.051s.039.03.058.044l.034.026q.052.035.107.065L42.226,81.991a1.21,1.21,0,0,0,.133.062l.03.011c.033.012.067.023.1.032l.037.01c.034.008.068.014.1.019l.035.005a1.12,1.12,0,0,0,.276,0l.035-.005c.035,0,.069-.011.1-.019l.037-.01q.052-.014.1-.032l.03-.011a1.221,1.221,0,0,0,.133-.062L73.051,65.954q.055-.03.107-.065l.034-.026c.02-.014.04-.029.058-.044s.037-.033.056-.051l.03-.028c.018-.018.035-.038.052-.058l.026-.029c.015-.018.028-.037.042-.056s.019-.026.028-.039.02-.033.03-.049.021-.035.031-.052.013-.027.02-.041.021-.043.031-.066.008-.022.012-.034.019-.05.027-.076.006-.023.009-.035.014-.051.019-.077.007-.042.01-.063.006-.034.008-.052a1.183,1.183,0,0,0,.006-.124V43.177l9.226-5a1.2,1.2,0,0,0,.282-1.906ZM52.957,2.691l27.4,14.849L72.262,25.7,44.8,10.851ZM13.694,41.4l-8.44-4.574,8.092-8.157L40.812,43.515l-8.16,8.16L13.7,41.406ZM41.6,78.918,14.329,64.176V44.481l17.965,9.737a1.2,1.2,0,0,0,1.424-.207L41.6,46.129Zm1.2-37.061L15.658,27.183,42.8,12.51,69.95,27.183ZM71.919,41.4l-.019.01-5.994,3.249a1.2,1.2,0,0,0-.486,1.632,1.206,1.206,0,0,0,1.632.484l4.229-2.292V64.176L44.007,78.918V46.128l7.883,7.883a1.194,1.194,0,0,0,.85.353,1.215,1.215,0,0,0,.573-.146l9.507-5.153a1.2,1.2,0,1,0-1.147-2.114l-8.716,4.723L44.8,43.515,72.263,28.668l8.092,8.158Z" transform="translate(-2.066 0)" fill="#1e1e1e"/></g></g></svg>