<svg xmlns="http://www.w3.org/2000/svg" width="82.28" height="82.28" viewBox="0 0 82.28 82.28"><g transform="translate(0)"><path d="M88.681,26.971A1.371,1.371,0,0,0,90.052,25.6V22.857A6.864,6.864,0,0,0,83.2,16H33.827a6.864,6.864,0,0,0-6.857,6.857v61.71h2.743V22.857a4.119,4.119,0,0,1,4.114-4.114H77.714a6.821,6.821,0,0,0-1.375,4.114V91.424a4.114,4.114,0,0,1-8.228,0V88.681A1.371,1.371,0,0,0,66.74,87.31H17.371A1.371,1.371,0,0,0,16,88.681v2.743a6.864,6.864,0,0,0,6.857,6.857H72.225a6.864,6.864,0,0,0,6.857-6.857V26.971ZM22.857,95.538a4.119,4.119,0,0,1-4.114-4.114V90.052H65.368v1.371a6.821,6.821,0,0,0,1.375,4.114ZM83.2,18.743a4.119,4.119,0,0,1,4.114,4.114v1.371H79.082V22.857A4.119,4.119,0,0,1,83.2,18.743Z" transform="translate(-16 -16)" fill="#1e1e1e"/><path d="M184,64.228a3.5,3.5,0,0,0,1.385,2.835,3.594,3.594,0,0,0,4.009,4.009,3.594,3.594,0,0,0,5.669,0,3.594,3.594,0,0,0,4.009-4.009,3.594,3.594,0,0,0,0-5.669,3.594,3.594,0,0,0-4.009-4.009,3.594,3.594,0,0,0-5.669,0,3.594,3.594,0,0,0-4.009,4.009A3.5,3.5,0,0,0,184,64.228Zm3.379-.8a1.371,1.371,0,0,0,.857-2.07.816.816,0,0,1,1.126-1.126,1.371,1.371,0,0,0,2.07-.857.816.816,0,0,1,1.592,0,1.371,1.371,0,0,0,2.07.857.816.816,0,0,1,1.126,1.126,1.371,1.371,0,0,0,.857,2.07.816.816,0,0,1,0,1.592,1.371,1.371,0,0,0-.857,2.07.816.816,0,0,1-1.126,1.126,1.371,1.371,0,0,0-2.07.857.816.816,0,0,1-1.592,0,1.371,1.371,0,0,0-2.07-.857.816.816,0,0,1-1.126-1.126,1.371,1.371,0,0,0-.857-2.07.816.816,0,0,1,0-1.592Z" transform="translate(-155.2 -49.143)" fill="#1e1e1e"/><path d="M192,200h13.713v2.743H192Z" transform="translate(-161.83 -168.459)" fill="#1e1e1e"/><path d="M216,168h13.713v2.743H216Z" transform="translate(-181.716 -141.945)" fill="#1e1e1e"/><path d="M168,168h5.485v2.743H168Z" transform="translate(-141.944 -141.945)" fill="#1e1e1e"/><path d="M152,240h32.912v2.743H152Z" transform="translate(-128.687 -201.603)" fill="#1e1e1e"/><path d="M120,240h2.743v2.743H120Z" transform="translate(-102.172 -201.603)" fill="#1e1e1e"/><path d="M152,272h21.941v2.743H152Z" transform="translate(-128.687 -228.117)" fill="#1e1e1e"/><path d="M296,272h8.228v2.743H296Z" transform="translate(-248.003 -228.117)" fill="#1e1e1e"/><path d="M152,304h32.912v2.743H152Z" transform="translate(-128.687 -254.632)" fill="#1e1e1e"/><path d="M120,304h2.743v2.743H120Z" transform="translate(-102.172 -254.632)" fill="#1e1e1e"/><path d="M152,336h8.228v2.743H152Z" transform="translate(-128.687 -281.146)" fill="#1e1e1e"/><path d="M216,336h21.941v2.743H216Z" transform="translate(-181.716 -281.146)" fill="#1e1e1e"/><path d="M152,368h21.941v2.743H152Z" transform="translate(-128.687 -307.661)" fill="#1e1e1e"/><path d="M120,368h2.743v2.743H120Z" transform="translate(-102.172 -307.661)" fill="#1e1e1e"/><path d="M152,400h32.912v2.743H152Z" transform="translate(-128.687 -334.176)" fill="#1e1e1e"/><path d="M296,368h8.228v2.743H296Z" transform="translate(-248.003 -307.661)" fill="#1e1e1e"/><path d="M412.342,117.485h-1.371a5.485,5.485,0,1,0-10.971,0v43.883a1.366,1.366,0,0,0,.146.613h0l4.114,8.228a1.371,1.371,0,0,0,2.453,0l4.114-8.228h0a1.36,1.36,0,0,0,.146-.613v-41.14h1.371a1.373,1.373,0,0,1,1.371,1.371v15.085h2.743V121.6A4.119,4.119,0,0,0,412.342,117.485Zm-6.857-2.743a2.746,2.746,0,0,1,2.743,2.743h-5.485A2.746,2.746,0,0,1,405.485,114.743ZM408.228,160h-5.485v-20.57h5.485Zm0-23.313h-5.485v-2.743h5.485Zm-2.743,29.846-1.9-3.79h3.79Zm2.743-35.331h-5.485V120.228h5.485Z" transform="translate(-334.176 -95.544)" fill="#1e1e1e"/></g></svg>