<svg xmlns="http://www.w3.org/2000/svg" width="68.763" height="80.44" viewBox="0 0 68.763 80.44"><path d="M128,457.3a1.3,1.3,0,0,0,1.3,1.3h12.974a1.3,1.3,0,1,0,0-2.595H129.3A1.3,1.3,0,0,0,128,457.3Z" transform="translate(-112.431 -383.345)" fill="#1e1e1e"/><path d="M96.222,31.354H78.707V12.541A4.546,4.546,0,0,0,74.166,8H36.541A4.546,4.546,0,0,0,32,12.541V83.9a4.546,4.546,0,0,0,4.541,4.541H74.166A4.546,4.546,0,0,0,78.707,83.9V65.086H96.222a4.546,4.546,0,0,0,4.541-4.541V35.894A4.546,4.546,0,0,0,96.222,31.354ZM61.476,10.595l-.649,2.595H49.88l-.649-2.595ZM76.112,83.9a1.948,1.948,0,0,1-1.946,1.946H36.541A1.948,1.948,0,0,1,34.595,83.9V12.541a1.948,1.948,0,0,1,1.946-1.946H46.555L47.608,14.8a1.3,1.3,0,0,0,1.258.983H61.841A1.3,1.3,0,0,0,63.1,14.8l1.053-4.207H74.166a1.948,1.948,0,0,1,1.946,1.946V31.354H58.6a4.546,4.546,0,0,0-4.541,4.541V60.545A4.546,4.546,0,0,0,58.6,65.086H76.112ZM98.168,60.545a1.948,1.948,0,0,1-1.946,1.946H58.6a1.948,1.948,0,0,1-1.946-1.946V46.923H98.168Zm0-16.218H56.651V40.435H98.168Zm0-6.487H56.651V35.894A1.948,1.948,0,0,1,58.6,33.948H96.222a1.948,1.948,0,0,1,1.946,1.946Z" transform="translate(-32 -8)" fill="#1e1e1e"/><path d="M362.379,288H353.3a1.3,1.3,0,0,0-1.3,1.3v3.892a1.3,1.3,0,0,0,1.3,1.3h9.082a1.3,1.3,0,0,0,1.3-1.3V289.3A1.3,1.3,0,0,0,362.379,288Zm-1.3,3.892h-6.487v-1.3h6.487Z" transform="translate(-300.103 -242.59)" fill="#1e1e1e"/></svg>