<svg xmlns="http://www.w3.org/2000/svg" width="129" height="128" viewBox="0 0 129 128">
  <path id="Union_2" data-name="Union 2" d="M98,128a7,7,0,0,1-7-7v-8H40v8a7,7,0,0,1-7,7H18a7,7,0,0,1-7-7v-8H6a6.007,6.007,0,0,1-6-6V6A6.007,6.007,0,0,1,6,0H123a6.007,6.007,0,0,1,6,6V107a6.007,6.007,0,0,1-6,6h-3v8a7,7,0,0,1-7,7ZM10,103H119V10H10Zm15.241-5L16,88.531V25.284L25.05,15h78.936L114,24.468V89.112L105.516,98Zm77.279-7L107,86.307V45H78.955A11.006,11.006,0,0,1,70,54.819V61H61V54.8A10,10,0,0,1,53,45H23V85.682L28.19,91H46V83H41V75H89v8H84v8ZM76,91V83H54v8ZM60,45a3,3,0,0,0,3,3h5a4,4,0,0,0,4-4V37H60Zm47-8V27.483L101.2,22H28.214L23,27.925V37H53V30H79v7Z" fill="#0570a6"/>
</svg>
