<svg xmlns="http://www.w3.org/2000/svg" width="40.016" height="46.075" viewBox="0 0 40.016 46.075">
  <g id="tools" transform="translate(-33.664 0)">
    <path id="Tracé_66" data-name="Tracé 66" d="M83.113,393.021a1.209,1.209,0,0,0-1.193-.173l-2.323.927a1.209,1.209,0,0,0-.746.946l-.359,2.475a1.208,1.208,0,0,0,.446,1.119l1.964,1.548a1.208,1.208,0,0,0,1.193.173l2.323-.927a1.209,1.209,0,0,0,.746-.946l.359-2.475a1.208,1.208,0,0,0-.447-1.119Zm.734,4.871-2.175.868-1.839-1.45.336-2.317,2.175-.868,1.839,1.45Z" transform="translate(-40.783 -357.418)" fill="#fff"/>
    <path id="Tracé_67" data-name="Tracé 67" d="M73.209,5.286a.8.8,0,0,0-1.388-.225L68.088,9.8a.185.185,0,0,1-.187.065l-3.029-.708a.184.184,0,0,1-.123-.1l-1.4-2.779a.185.185,0,0,1,.02-.2l3.733-4.735a.8.8,0,0,0-.543-1.3,7.976,7.976,0,0,0-8.372,10.615.775.775,0,0,1-.122.744l-4.392,5.571a1.609,1.609,0,0,0-1,.325l-.393.3-.773-1.028.4-.3a1.619,1.619,0,0,0,.32-2.268L43.377,2.241A5.4,5.4,0,1,0,34.75,8.734l.769,1.022a.671.671,0,0,0,1.073-.808l-.769-1.022A4.056,4.056,0,1,1,42.3,3.049l8.854,11.764a.277.277,0,0,1-.055.387l-3.02,2.273L46,19.044h0l-.932.7a.277.277,0,0,1-.387-.055l-6.223-8.268a.671.671,0,0,0-1.073.808L43.6,20.5a1.609,1.609,0,0,0,1.068.63,1.65,1.65,0,0,0,.23.016,1.608,1.608,0,0,0,.97-.326l.4-.3.773,1.027-.393.3a1.623,1.623,0,0,0-.321,2.273l.741.985a1.635,1.635,0,0,0,.105.126l-5.09,6.456a.764.764,0,0,1-.618.3,7.049,7.049,0,1,0-.257,14.094A7.173,7.173,0,0,0,42,46.031a7,7,0,0,0,4.758-2.642,7.08,7.08,0,0,0,1.261-6.229.779.779,0,0,1,.14-.685l.514-.652a.671.671,0,1,0-1.055-.831l-.514.652a2.128,2.128,0,0,0-.381,1.871,5.732,5.732,0,0,1-1.02,5.043,5.707,5.707,0,0,1-8.08.9,5.706,5.706,0,0,1,3.8-10.131,2.107,2.107,0,0,0,1.717-.808l5.337-6.771a1.611,1.611,0,0,0,.865-.322l1.113-.838,2.623,3.485-3.531,4.479a.671.671,0,1,0,1.055.831l3.311-4.2,7.9,10.494,1.726,3.687a1.405,1.405,0,0,0,.584.631l3.055,1.728a1.412,1.412,0,0,0,1.545-.1l.7-.526a1.413,1.413,0,0,0,.525-1.457l-.816-3.414a1.406,1.406,0,0,0-.445-.736l-3.065-2.678-8.654-11.5L64.147,16.2a.776.776,0,0,1,.695-.292A7.976,7.976,0,0,0,73.209,5.286ZM50.443,17.378l.773,1.028-1.3.978-1.8,1.356-.773-1.028Zm-1.909,6.971a.28.28,0,0,1-.392-.055l-.741-.985a.28.28,0,0,1,.055-.392l.929-.7h0l.992-.747,4.112-3.095a.277.277,0,0,1,.168-.056.3.3,0,0,1,.039,0,.279.279,0,0,1,.185.109l.741.985a.28.28,0,0,1-.055.392ZM67.8,40.5a.07.07,0,0,1,.022.037l.816,3.414a.07.07,0,0,1-.026.072l-.7.526a.07.07,0,0,1-.076,0l-3.055-1.728a.07.07,0,0,1-.029-.031l-1.524-3.257,1.864-1.4Zm-3.616-3.363-1.661,1.251L51.528,23.776l1.661-1.25Zm6.725-25.052a6.6,6.6,0,0,1-5.923,2.488,2.109,2.109,0,0,0-1.893.8L56.129,24.2l-1.867-2.481,1.113-.838a1.623,1.623,0,0,0,.321-2.273l-.741-.985c-.012-.016-.026-.031-.039-.047l4.209-5.339a2.11,2.11,0,0,0,.332-2.026A6.634,6.634,0,0,1,65.392,1.35l-3.073,3.9a1.533,1.533,0,0,0-.165,1.631l1.4,2.78a1.523,1.523,0,0,0,1.017.8l3.029.708a1.533,1.533,0,0,0,1.547-.542l3.073-3.9a6.593,6.593,0,0,1-1.307,5.354Z" transform="translate(0 0)" fill="#fff"/>
    <path id="Tracé_68" data-name="Tracé 68" d="M72.71,63.714a.671.671,0,0,0-.133.94l7.329,9.737a.671.671,0,0,0,1.073-.807L73.65,63.847a.671.671,0,0,0-.94-.133Z" transform="translate(-35.288 -57.857)" fill="#fff"/>
    <path id="Tracé_69" data-name="Tracé 69" d="M107.684,54.155a.671.671,0,0,0,.536-1.075l-7.329-9.737a.671.671,0,0,0-1.073.808l7.329,9.737A.671.671,0,0,0,107.684,54.155Z" transform="translate(-60.078 -39.198)" fill="#fff"/>
  </g>
</svg>
