<svg xmlns="http://www.w3.org/2000/svg" width="97.786" height="79.414" viewBox="0 0 97.786 79.414"><g transform="translate(0 -48.096)"><g transform="translate(0 48.096)"><path d="M93.292,124.646h-1.63V82.15a13.3,13.3,0,0,0,6.124-11.188,1.433,1.433,0,0,0-.189-.711L86.231,50.361a4.5,4.5,0,0,0-3.9-2.265H15.457a4.5,4.5,0,0,0-3.9,2.265L.189,70.252A1.434,1.434,0,0,0,0,70.962,13.3,13.3,0,0,0,6.124,82.15v42.5H4.494a1.432,1.432,0,0,0,0,2.865h88.8a1.432,1.432,0,1,0,0-2.865ZM2.964,72.395H7.556a1.432,1.432,0,0,0,0-2.865H3.9L14.042,51.782a1.633,1.633,0,0,1,1.415-.821H82.329a1.633,1.633,0,0,1,1.415.821L93.885,69.53H90.229a1.432,1.432,0,0,0,0,2.865h4.593a10.432,10.432,0,0,1-20.666,0h9.95a1.432,1.432,0,0,0,0-2.865H13.681a1.432,1.432,0,0,0,0,2.865h9.949a10.432,10.432,0,0,1-20.666,0Zm68.127,0a10.43,10.43,0,0,1-20.664,0Zm-23.73,0a10.43,10.43,0,0,1-20.664,0Zm33.782,52.251H65.635v-4.79H81.142Zm0-7.655H65.635V90.767H81.142Zm7.655,7.655h-4.79V89.334A1.432,1.432,0,0,0,82.575,87.9H64.2a1.432,1.432,0,0,0-1.432,1.432v35.311H8.989V83.539a13.284,13.284,0,0,0,16.174-6.576,13.3,13.3,0,0,0,23.73,0,13.295,13.295,0,0,0,23.73,0A13.285,13.285,0,0,0,88.8,83.539Z" transform="translate(0 -48.096)"/></g><g transform="translate(13.779 87.902)"><path d="M114.914,256.516H73.577a1.432,1.432,0,0,0-1.432,1.432v29.089a1.432,1.432,0,0,0,1.432,1.432h41.337a1.432,1.432,0,0,0,1.432-1.432V257.948A1.432,1.432,0,0,0,114.914,256.516ZM113.482,285.6H75.01V259.381h38.472Z" transform="translate(-72.145 -256.516)"/></g></g></svg>