<svg id="download-speed" xmlns="http://www.w3.org/2000/svg" width="41.312" height="35.562" viewBox="0 0 41.312 35.562">
  <path id="Tracé_3" data-name="Tracé 3" d="M41.312,41.882a20.587,20.587,0,0,0-5.956-14.5,1.028,1.028,0,0,0-.094-.11,1.011,1.011,0,0,0-.11-.094,20.618,20.618,0,0,0-28.991,0,1.041,1.041,0,0,0-.11.094,1.014,1.014,0,0,0-.094.11,20.637,20.637,0,0,0,.093,29.1l0,0h0l0,0a1.016,1.016,0,0,0,1.437,0c.017-.017.032-.035.048-.053l3.13-3.131A1.016,1.016,0,0,0,9.231,51.87L6.788,54.313A18.467,18.467,0,0,1,2.059,42.9H5.514a1.016,1.016,0,0,0,0-2.032H2.06A18.55,18.55,0,0,1,6.795,29.457l2.436,2.436a1.016,1.016,0,0,0,1.437-1.437L8.231,28.02A18.549,18.549,0,0,1,19.64,23.286V26.74a1.016,1.016,0,1,0,2.032,0V23.286A18.55,18.55,0,0,1,33.08,28.021l-2.436,2.436a1.016,1.016,0,0,0,1.437,1.437l2.436-2.436a18.55,18.55,0,0,1,4.735,11.409H35.8a1.016,1.016,0,0,0,0,2.032h3.455a18.467,18.467,0,0,1-4.728,11.415L32.081,51.87a1.016,1.016,0,0,0-1.437,1.437l3.181,3.181a1.015,1.015,0,0,0,1.437,0A20.521,20.521,0,0,0,41.312,41.882Z" transform="translate(0 -21.226)" fill="#a61e2b"/>
  <path id="Tracé_4" data-name="Tracé 4" d="M133.042,87.251a1.016,1.016,0,0,0-1.321.565l-2.936,7.328a3.861,3.861,0,0,0-.411-.025A3.767,3.767,0,0,0,125,97.186a4.038,4.038,0,0,0,.465,4.259,1.654,1.654,0,0,0,.361.361,4.335,4.335,0,0,0,2.545.876,3.767,3.767,0,0,0,3.371-2.067,4.037,4.037,0,0,0-.464-4.258,1.653,1.653,0,0,0-.362-.362c-.074-.054-.15-.1-.226-.152l2.913-7.271A1.016,1.016,0,0,0,133.042,87.251Zm-3.107,12.442a1.744,1.744,0,0,1-1.56.957,2.262,2.262,0,0,1-1.3-.451,2.006,2.006,0,0,1-.261-2.091,1.744,1.744,0,0,1,1.56-.957,1.977,1.977,0,0,1,.634.108l.02.009c.022.009.045.016.067.023a2.7,2.7,0,0,1,.578.31A2.006,2.006,0,0,1,129.936,99.693Z" transform="translate(-107.719 -78.245)" fill="#a61e2b"/>
</svg>
