<svg id="thank-you" xmlns="http://www.w3.org/2000/svg" width="511.996" height="512" viewBox="0 0 511.996 512">
  <path id="Tracé_140" data-name="Tracé 140" d="M416.668,0H95.332A95.44,95.44,0,0,0,0,95.332V359.863A95.44,95.44,0,0,0,95.332,455.2H192.98l52.414,52.41a14.995,14.995,0,0,0,21.211,0l52.41-52.41h97.648A95.44,95.44,0,0,0,512,359.863V95.332A95.434,95.434,0,0,0,416.668,0ZM482,359.863A65.407,65.407,0,0,1,416.668,425.2H312.8A15,15,0,0,0,302.2,429.59l-46.2,46.2-46.2-46.2A14.98,14.98,0,0,0,199.2,425.2H95.333A65.407,65.407,0,0,1,30,359.863V95.332A65.407,65.407,0,0,1,95.333,30H416.669A65.407,65.407,0,0,1,482,95.332Zm0,0" fill="#fff"/>
  <path id="Tracé_141" data-name="Tracé 141" d="M137.859,134.949H87.3a3.751,3.751,0,0,0-3.75,3.75v10.074a3.751,3.751,0,0,0,3.75,3.75h16.023V203.9a3.748,3.748,0,0,0,3.75,3.75h11.012a3.748,3.748,0,0,0,3.75-3.75V152.523h16.023a3.751,3.751,0,0,0,3.75-3.75V138.7a3.751,3.751,0,0,0-3.75-3.75Zm0,0" fill="#fff"/>
  <path id="Tracé_142" data-name="Tracé 142" d="M160.8,207.652a3.748,3.748,0,0,0,3.75-3.75v-22.93h24.871V203.9a3.748,3.748,0,0,0,3.75,3.75h11a3.746,3.746,0,0,0,3.75-3.75V138.7a3.748,3.748,0,0,0-3.75-3.75h-11a3.751,3.751,0,0,0-3.75,3.75v24.516H164.555V138.7a3.751,3.751,0,0,0-3.75-3.75h-11a3.748,3.748,0,0,0-3.75,3.75v65.2a3.746,3.746,0,0,0,3.75,3.75Zm0,0" fill="#fff"/>
  <path id="Tracé_143" data-name="Tracé 143" d="M257.145,137.188a3.749,3.749,0,0,0-3.43-2.238H241.961a3.759,3.759,0,0,0-3.434,2.238L209.8,202.4a3.753,3.753,0,0,0,3.434,5.262h11.754a3.746,3.746,0,0,0,3.43-2.242l5.547-12.59h27.754l5.547,12.59a3.746,3.746,0,0,0,3.43,2.242h11.777a3.751,3.751,0,0,0,3.262-5.6Zm-3.211,37.965H241.743l6.1-13.82Zm0,0" fill="#fff"/>
  <path id="Tracé_144" data-name="Tracé 144" d="M351.383,134.949H340.371a3.751,3.751,0,0,0-3.75,3.75v37.766L305.461,136.4a3.74,3.74,0,0,0-2.957-1.449H291.492a3.751,3.751,0,0,0-3.75,3.75v65.207a3.751,3.751,0,0,0,3.75,3.75H302.5a3.751,3.751,0,0,0,3.75-3.75V167.273l30.223,38.93a3.745,3.745,0,0,0,2.961,1.453h11.941a3.751,3.751,0,0,0,3.75-3.75V138.7a3.745,3.745,0,0,0-3.746-3.75Zm0,0" fill="#fff"/>
  <path id="Tracé_145" data-name="Tracé 145" d="M402.949,167.523l24.141-26.289a3.749,3.749,0,0,0-2.762-6.285H410.336a3.747,3.747,0,0,0-2.734,1.184l-23.367,24.9V138.7a3.751,3.751,0,0,0-3.75-3.75H369.476a3.751,3.751,0,0,0-3.75,3.75v65.2a3.748,3.748,0,0,0,3.75,3.75h11.008a3.748,3.748,0,0,0,3.75-3.75V187.093l5.477-5.906,18.941,24.984a3.756,3.756,0,0,0,2.988,1.48H424.7a3.748,3.748,0,0,0,3.039-5.949Zm0,0" fill="#fff"/>
  <path id="Tracé_146" data-name="Tracé 146" d="M214.449,248.809a3.742,3.742,0,0,0-3.27-1.922H199.144a3.753,3.753,0,0,0-3.215,1.82l-14.6,24.313-14.6-24.312a3.753,3.753,0,0,0-3.215-1.82H151.476a3.752,3.752,0,0,0-3.2,5.715l23.7,38.555v24.688a3.751,3.751,0,0,0,3.75,3.75h11.2a3.751,3.751,0,0,0,3.75-3.75V291.157l23.7-38.555a3.737,3.737,0,0,0,.078-3.793Zm0,0" fill="#fff"/>
  <path id="Tracé_147" data-name="Tracé 147" d="M247.465,245.3c-10.672,0-19.777,3.605-27.062,10.719-7.309,7.141-11.016,16.141-11.016,26.75s3.707,19.613,11.016,26.75c7.289,7.117,16.395,10.723,27.063,10.723s19.77-3.605,27.059-10.723c7.313-7.137,11.02-16.141,11.02-26.75s-3.707-19.609-11.02-26.75c-7.285-7.113-16.387-10.719-27.059-10.719Zm0,57.367a18.126,18.126,0,0,1-13.676-5.762,20.608,20.608,0,0,1,0-28.273,19.111,19.111,0,0,1,27.348,0,20.592,20.592,0,0,1,0,28.277A18.106,18.106,0,0,1,247.465,302.672Zm0,0" fill="#fff"/>
  <path id="Tracé_148" data-name="Tracé 148" d="M350.074,246.887H339.066a3.751,3.751,0,0,0-3.75,3.75v36.1c0,5.023-1.2,8.973-3.574,11.738-2.258,2.637-5.293,3.918-9.281,3.918s-7.02-1.281-9.277-3.918c-2.371-2.766-3.574-6.715-3.574-11.738v-36.1a3.751,3.751,0,0,0-3.75-3.75H294.851a3.748,3.748,0,0,0-3.75,3.75V287.2c0,10.395,2.98,18.59,8.863,24.363,5.859,5.758,13.43,8.68,22.5,8.68s16.637-2.922,22.5-8.68c5.883-5.773,8.863-13.969,8.863-24.363V250.637A3.751,3.751,0,0,0,350.074,246.887Zm0,0" fill="#fff"/>
</svg>
