<svg xmlns="http://www.w3.org/2000/svg" xmlns:xlink="http://www.w3.org/1999/xlink" width="450.128" height="233.431" viewBox="0 0 450.128 233.431"><defs><clipPath id="a"><rect width="428.521" height="154.504" fill="none"/></clipPath></defs><g transform="translate(0 81.766) rotate(-11)"><g clip-path="url(#a)"><path d="M744.29,294.019c.953.3.848.153.254-.2s-1.7-.882-2.708-1.38L739.7,292.3Z" transform="translate(-405.127 -160.089)" fill="#e50021"/><path d="M720.607,285.769l-5.462-1.121,3.89.956c4.1,1.714-.789.473-2.408.063,6.922,2.131,2.758.09,3.979.1" transform="translate(-391.676 -155.898)" fill="#e50021"/><path d="M701.069,280.165c-3.4-1.015-2.562-.33-1.171.207.276-.113,2.564.329,1.171-.207" transform="translate(-382.661 -153.157)" fill="#e50021"/><path d="M428.7,332.038c-1,.221-2.158.521-2.032.357-1.045.459-1.249.631,2.032-.357" transform="translate(-233.308 -181.853)" fill="#e50021"/><path d="M427.495,332.476l.675-.29-.64.235c-.06.036-.019.035-.035.055" transform="translate(-234.134 -181.934)" fill="#e50021"/><path d="M284.243,270.964a39.422,39.422,0,0,1,4.562-1.9l4.563-1.57,2.147-.078c3.8-1.3,1.571-.934,4.3-2.028.452-.09.962-.207,1.512-.344s1.139-.3,1.76-.434c1.238-.286,2.562-.621,3.827-.95l3.462-.921,1.315-.351c.374-.095.681-.148.895-.191.619,0,.268.159-.305.348a15.736,15.736,0,0,0-1.626.6l2.658-.78c.694-.214,1.25-.408,1.843-.6a42.249,42.249,0,0,1,5.4-1.372l.121.123c.848-.237,1.727-.385,2.614-.573l2.7-.533c1.83-.342,3.7-.727,5.627-1.025l5.883-.776,3-.382c1.008-.109,2.024-.172,3.042-.26l6.137-.492c1.025-.1,2.054-.106,3.08-.154l3.076-.119,3.06-.125,1.522-.066,1.515,0,5.97-.043a2.117,2.117,0,0,1-1.2-.268l3.135.022c1.053.014,2.112.1,3.178.142l6.45.323c.541.018,1.08.069,1.619.121l1.619.147,3.235.29,3.222.28.8.068.8.1,1.585.2,6.237.749c1.026.1,2.029.264,3.021.417l2.941.435c1.933.289,3.821.506,5.62.78,1.794.3,3.518.568,5.158.795-1.1-.243-2.291-.524-3.552-.832l-1.94-.48c-.666-.15-1.352-.282-2.047-.43l-4.3-.9-2.214-.463c-.742-.158-1.488-.314-2.243-.422-3.009-.482-6.03-.94-8.872-1.3-2.857-.243-5.535-.395-7.839-.4-.418-.091-.866-.171-1.333-.242a13.891,13.891,0,0,0-1.446-.16c-.988-.07-2-.115-2.958-.162a16.4,16.4,0,0,1-4.256-.5c-.817-.057-1.6-.139-2.366-.158l-2.21-.045c-1.425-.022-2.759-.028-4.029-.023s-2.477.007-3.651.06l-3.445.234-3.418.244-1.754.12-.9.058-.914.095c-2.461.255-5.139.5-8.273.716-.9,0-1.14-.038-1.222-.143s0-.238-.275-.334c.824-.13,1.655-.179,2.484-.264l2.487-.233,4.979-.465-6.1.2c1.308-.208,3.571-.378,5.595-.561,1.01-.109,1.966-.153,2.711-.226a4.333,4.333,0,0,0,1.462-.29l-3.5.278c-1.231.128-2.52.247-3.847.362-2.651.249-5.458.377-8.206.76l-4.08.494-1.977.25c-.649.084-1.289.159-1.907.283-2.483.449-4.745.9-6.6,1.36,1.78-.216,3.768-.53,5.836-.868l1.565-.253,1.591-.188c1.064-.124,2.132-.244,3.187-.351,1.872-.038,4.749-.232,4.586.045-2.989.52-5.849.956-8.653,1.342l-8.269,1.38-2.062.33-2.057.416-4.169.848-2.124.436c-.713.15-1.435.285-2.151.484l-4.4,1.152c-1.5.408-3.279.83-4.741,1.186a13.83,13.83,0,0,1-2.887.609c1.933-.663.4-.427,1.974-1.02-4.164,1.455-.176,1.008-6.291,2.708l.522-1.073c-2.157,1.56-7.507,2.138-11.515,4.316-1.639.275,1.054-1.057,4.341-2.233a20.361,20.361,0,0,0-3.745,1.5c-.436.228-.845.451-1.33.687s-1.034.507-1.761.8c.82-.61,1.644-1.23,2.488-1.821-2.864,1.888-5.61,2.212-7.449,2.852-.061.133.37.129.339.323-.014.1-.144.244-.507.481s-.954.568-1.884,1.059c-1.631.782-.91.181-1.336.292a3.84,3.84,0,0,1-.969.941c-.583.5-1.464,1.107-2.6,1.9-.567.07,1.326-1.337,1.361-1.634-.9.547-1.673,1.117-2.42,1.591-.721.512-1.416.936-2.082,1.328-2.807,2.469.4.126-1.2,1.763-.554.442-.988.768-1.321,1.006a7.419,7.419,0,0,1-.71.484c-.315.176-.374.07-.359-.136.025-.4.412-1.189-.583-.6a16.551,16.551,0,0,1,1.207-1.262c.421-.4.841-.825,1.29-1.217l1.349-1.168,1.367-1.081c1.809-1.372,3.484-2.5,4.467-3.16a58.3,58.3,0,0,0-6.928,4.908c.2-.617-4.768,3.348-1.489.181l-1.275,1.027a14.429,14.429,0,0,0-1.357,1.282c-.118.133-.224.251-.35.407-.145.176-.261.341-.387.517a7.021,7.021,0,0,0-.626,1.116,5.615,5.615,0,0,0-.385,1.223,5.032,5.032,0,0,0-.072.639,5.373,5.373,0,0,0-.037.643,5.748,5.748,0,0,0,.671,2.487,7.3,7.3,0,0,0,1.679,2.014,9.931,9.931,0,0,0,1.847,1.194,13.6,13.6,0,0,0,1.872.778,16.206,16.206,0,0,0,1.9.49c.318.068.64.113.962.159s.583.062.875.093c1.143.1,2.271.243,3.389.283,1.117.06,2.213.129,3.287.124,1.073.016,2.119.032,3.133-.011-1.148-.083-2.618-.227-2.372-.4,1.044.011,1.8,0,2.353.009a7.467,7.467,0,0,1,1.173.1c.513.1.614.251,1.046.338a9.089,9.089,0,0,0,2.751-.582,9.385,9.385,0,0,1,1.816-.749l1.127-.012,1.01-.053,1.743-.113c1.056-.086,1.921-.213,2.764-.3s1.646-.228,2.587-.329,2.005-.246,3.363-.405l-.445-.419c3.821-.531,4.154-1.418,8.133-2.457.251.025-1.186.7-2.371,1.172a24.514,24.514,0,0,1,3.365-1.012,13.153,13.153,0,0,0,3.252-1.156c-.809.523-1.614,1.076-2.444,1.58.676-.244,1.408-.579,2.126-.874l1.044-.436.922-.41c1.126-.49,1.784-.7,1.206-.176l.86-.5.919-.55,2.035-1.162a40.439,40.439,0,0,0,4.491-3,22.5,22.5,0,0,0,4.131-4.087,12.755,12.755,0,0,0,2.394-5.193c.107.191.21.388.313.59a17.836,17.836,0,0,0,.187-3.913A12.073,12.073,0,0,0,326,261.53a13.108,13.108,0,0,0-3.018-3.6,10.34,10.34,0,0,0-2.776-1.7l-.332-.416a30.348,30.348,0,0,0-6.252-2.2c-1.383-.492-1.8-.784-1.9-.966s.115-.248-.023-.19c-6.143-1.622-11.044-2.443-15.051-3.229a21.858,21.858,0,0,1-4.921.049c-2.446-.121-5.419-.217-8.051-.256a126.3,126.3,0,0,0-19.246.8,164.427,164.427,0,0,0-19.114,3.419c-6.27,1.479-12.4,3.272-18.315,5.215s-11.632,4.046-17.084,6.177c-3.292,1.2-7.587,3.492-11.56,5.326,5.05-1.769,5.419-2.224,10.359-4.032,3.773-1.188,5.347-1.1,8.678-1.831l-1.793.081c4.92-2.093,3.56-.925,7.408-2.711l.08.819a12.594,12.594,0,0,1,3.137-1.161c1.265-.324,2.559-.569,3.319-.69l1.162-.92c3.3-.648,5.441-1.067,6.55-.852l-.446-.408c.65,0,3.752-.836,6.254-1.362s4.383-.806,2.55.039a16.813,16.813,0,0,1,3.8-1.145l.416.433c2.951-.749,6.284-1.409,7.194-1.262a7.009,7.009,0,0,0-2.6,1.016c3.155-.53,4.887-.881,5.887-1.17a2.635,2.635,0,0,0,1.476-.8,2.123,2.123,0,0,1,1.214-.761,25.348,25.348,0,0,1,5.147-.86l-.1.341c.948-.22,1.9-.393,2.855-.583l1.527.1,1.524.133c2.018-.688,6.038-.775,10.376-.557s8.98.791,12.416,1c2.69.321,6.086,1.5,11.035,2.689l-.2-.578c.484.195,1.136.44,1.914.714l1.256.436c.449.152.885.332,1.361.507a27.272,27.272,0,0,1,5.766,3.036c.461.307.859.665,1.27,1a12.835,12.835,0,0,1,1.063,1.075,10.218,10.218,0,0,1,.842,1.091l.3.546c.048.089.1.174.143.262s.068.178.1.266a3.95,3.95,0,0,1,.144,3.121c.024.147.06.278.073.39s.011.208.015.287a2.1,2.1,0,0,0,.042.307c.028.1.048-.008.08-.188.1-.357.086-1.033.3-1.019a5.334,5.334,0,0,1-.445,3.061,6.327,6.327,0,0,1-1.275,1.808c-.239.221-.471.418-.694.608l-.731.534-1.788,1.194c-.768.67-1.016.886-.94.875a5.107,5.107,0,0,0,.891-.538c.432-.282.873-.626,1.14-.779.247-.165.335-.137-.014.3-1.257.945-2.211,1.575-2.983,2.1l-2.007,1.389c-.673.437-1.421.894-2.476,1.469-.534.278-1.161.56-1.9.889s-1.6.662-2.622,1.026c-.9.049,2-1,2.721-1.571a51.168,51.168,0,0,1-11.293,4.315,80.015,80.015,0,0,1-14.142,2.338l-.984.042-1.013.006c-.683,0-1.383.017-2.1.01-1.431-.042-2.921-.064-4.451-.188L274,285.551l-1.167-.12c-.782-.09-1.576-.138-2.37-.267l-1.2-.17-.6-.085c-.191-.029-.429-.055-.566-.088a10.63,10.63,0,0,1-1.868-.519,6.614,6.614,0,0,1-1.518-.791c-.081-.07-.177-.149-.236-.191l-.051-.066a.488.488,0,0,1-.069-.144.241.241,0,0,1,0-.152.226.226,0,0,1,.037-.137.44.44,0,0,1,.086-.105l.025-.021c.006-.005,0,.011.008,0a.774.774,0,0,1,.055-.06c.075-.082.166-.174.269-.271.392-.383,1.087-.92,1.683-1.4.6-.5,1.25-.934,1.862-1.4.638-.434,1.265-.867,1.9-1.271s1.267-.8,1.917-1.153l.089-.271c2.207-1.091,4.467-2.3,6.9-3.464a63.948,63.948,0,0,1,7.853-3.217c-.937.247-1.871.5-2.8.775" transform="translate(-108.635 -136.34)" fill="#e50021"/><path d="M539.29,256.58l-1.016-.406-2.9.22c-.964.079-1.93.127-2.891.26a24.358,24.358,0,0,0,3.074.049c1-.046,2.111-.127,3.73-.124" transform="translate(-291.636 -140.303)" fill="#e50021"/><path d="M542.589,259.726l3.011-.279-4.88.155Z" transform="translate(-296.146 -142.096)" fill="#e50021"/><path d="M386.394,283.571l.723-.209c1.7-.7,3.41-1.385,5.135-2.023.861-.325,1.727-.635,2.593-.944l2.617-.869-2.8.908c-.925.329-1.853.65-2.774.994q-2.769,1.008-5.492,2.143" transform="translate(-211.623 -153.093)" fill="#e50021"/><path d="M426.29,333.028a16.364,16.364,0,0,1-2.077.835c-.754.257-1.529.466-2.158.725,1.686-.512,3.339-1.12,4.985-1.733-.247.069-.5.116-.75.173" transform="translate(-231.154 -182.301)" fill="#e50021"/><path d="M450.137,252.509a7.876,7.876,0,0,1-2.5-.328c-.4-.12-.226-.094.963.6,1.581.4,1.741.35,1.6.167s-.563-.457-.062-.438" transform="translate(-245.061 -138.086)" fill="#e50021"/><path d="M427.093,249.179a30.045,30.045,0,0,0,3.783.552c-2.275-.836-2.445-.438-3.783-.552" transform="translate(-233.914 -136.472)" fill="#e50021"/><path d="M66.367,1.083q12.048,1.039,19.6,2.007T108.737,6.2Q123.014,8.4,126.181,9.032t3.163,1.365a1.608,1.608,0,0,1-.576,1.088,2.1,2.1,0,0,1-1.405.617q-6.128-.545-16.668-1.839T91.171,7.789q-8.984-1.181-20.8-2.168t-22-1.238a199.889,199.889,0,0,0-21.459.686A135.853,135.853,0,0,0,6.177,8.3a1.35,1.35,0,0,0-.655,1.426A34.454,34.454,0,0,0,7.5,14.283a22.2,22.2,0,0,1,2.055,5.36q.2,2.027-2.493-.219-1.346-1.1-4.207-6.122T0,7.081A2,2,0,0,1,1.281,5.216a37.977,37.977,0,0,1,6.112-1.74A178.319,178.319,0,0,1,44.6,0q9.714.042,21.763,1.082M52.085,12.061A5.278,5.278,0,0,1,52.02,15.1Q46.9,34.767,43.931,47.508T35.187,86.927a6.853,6.853,0,0,1-1,2.281q-1.254,1.709-2.395,1.133-1.608-.839-.6-5.614,1.643-7.524,4.321-19.956t3.949-18.062q1.271-5.631,3.544-14.583T47.972,14.1a4.181,4.181,0,0,1,1.075-2.177,2.353,2.353,0,0,1,1.692-.824,1.4,1.4,0,0,1,1.347.967" transform="translate(0 0)" fill="#313133"/><path d="M209.559,22.6a1.821,1.821,0,0,1,.67,1.276,39.229,39.229,0,0,1-2.494,11.99,95.883,95.883,0,0,1-5.956,13.585q-3.535,6.635-7.488,13.657t-7.146,12.515a69.049,69.049,0,0,0-4.848,9.824q-1.655,4.331-.676,6,.052.052.887-.958t2.115-2.64q1.279-1.631,2.742-3.365t3.054-3.363a19.853,19.853,0,0,1,2.79-2.456q3.907-2.632,6.288-.544t3.907,9.524q.966,4.524,1.95,5.359a3.165,3.165,0,0,0,2.618,1.259,9.573,9.573,0,0,0,3.824-1.2,33.058,33.058,0,0,0,4.584-2.837q2.293-1.678,4.873-3.745t4.693-3.85q2.112-1.783,4.04-3.125a11.8,11.8,0,0,1,2.969-1.65q.569.47-1.181,2.722a45.148,45.148,0,0,1-4.905,5.174q-3.157,2.921-6.779,5.737a44.474,44.474,0,0,1-7.319,4.669q-3.7,1.854-5.982,1.688a5.234,5.234,0,0,1-4.536-2.253q-1.576-2.24-2.538-7.752a20.692,20.692,0,0,0-1.251-4.889,2.039,2.039,0,0,0-1.943-1.152,7.073,7.073,0,0,0-5,2.264q-2.348,2.277-7.472,9.786a73.229,73.229,0,0,0-7.594,13.994q-1.155,2.9-1.838,4.46a24.1,24.1,0,0,1-1.232,2.488q-.549.932-.887.879a2.117,2.117,0,0,1-.8-.367,2.09,2.09,0,0,1-.669-1.509q.009-1.975,2.831-11.937t4.714-14.682q1.89-4.719,5.993-16.209t7.2-19.866q3.1-8.376,7.19-16.8t7.271-11.371a3.038,3.038,0,0,1,1.978-.771,2.148,2.148,0,0,1,1.348.447" transform="translate(-93.672 -12.135)" fill="#313133"/><path d="M314.455,130.844q-.737,2.023-3.532-.223-2.227-1.828-3.893-.744t-2.515,4.924q-1.271,5.71,1.364,8.89a1.967,1.967,0,0,0,1.581.76,6.594,6.594,0,0,0,2.6-.43q1.483-.513,3.148-1.259t3.54-1.777q1.875-1.03,3.463-1.959t3.229-1.882q1.641-.954,2.578-1.418l.885-.464q2.5-1.132,2.91-.039.358.936-1.361,2.28-.989.516-4.116,2.658t-5.939,3.818a49,49,0,0,1-6.118,3.065,11.178,11.178,0,0,1-6.056.961,6.079,6.079,0,0,1-4.351-2.98q-1.187-1.875-1.966-1.879a37.684,37.684,0,0,0-5.446,3.951q-2.947,2.508-4.8,4.109a13.54,13.54,0,0,1-4.556,2.526,10.119,10.119,0,0,1-5.664.235,4.8,4.8,0,0,1-2.186-4.945,13.272,13.272,0,0,1,3.486-7,54.2,54.2,0,0,1,12.095-9.792q7.918-4.979,11.351-5.847a12.855,12.855,0,0,1,2.911-.351q5.505.024,7.356,4.811m-21.79,5.048a39.806,39.806,0,0,0-8.6,6.664q-3.652,3.777-3.662,5.959c0,.07,0,.122,0,.156q.246,3.379,5.085,1.269a34.394,34.394,0,0,0,9.8-7.023q5.216-5.068,5.125-7.822.685-2.386.427-2.648a.72.72,0,0,0-.519-.158q-1.559-.007-7.653,3.6" transform="translate(-151.827 -69.027)" fill="#313133"/><path d="M402.88,124.6q.725.367.755,5.407a27.019,27.019,0,0,0,1.651,8.553q1.617,4.657,2.5,5.492a6.347,6.347,0,0,0,3,2.689,6.216,6.216,0,0,0,3.557.275,13.266,13.266,0,0,0,4.295-1.955,45.361,45.361,0,0,0,4.743-3.512q2.294-1.938,5.372-4.886a17.348,17.348,0,0,1,1.773-1.5q1.146-.774,1.09.161-2.148,3.939-7.856,8.486t-10.024,5.411a8.55,8.55,0,0,1-6.46-1.821q-2.822-2.22-5.287-8.829-.917-4.107-1.539-4.423-.364-.157-5.283,8.29t-7.75,14.1a10.634,10.634,0,0,1-2.2,3.107q-1.824,1.55-2.751-.531a92.787,92.787,0,0,1,.989-12.386q1.02-7.606,1.348-11.4a1.768,1.768,0,0,1,.159-.6,2.073,2.073,0,0,1,1.979-1.109,1.084,1.084,0,0,1,.672.574q1.084,1.719.057,10.806-.647,5.5-.232,5.558.363.054,1.675-2.8.943-1.917,5.184-9.3a86,86,0,0,0,5.606-11.015,5.816,5.816,0,0,1,1.023-2.2,1.805,1.805,0,0,1,1.38-.8,1.094,1.094,0,0,1,.571.158" transform="translate(-209.473 -68.155)" fill="#313133"/><path d="M501.5,28.241a39.377,39.377,0,0,1-1.251,6.774q-.978,3.633-2.79,8.534t-3.835,9.724q-2.021,4.823-4.33,10.32t-4.3,10.294q-2,4.8-3.757,9.724t-2.66,8.56q-.21.727-.529,2.076-3.014,12.091-2.914,12.923.05.364.57.366,1.039,0,3.834-3.646t3.063-5.416q.32-1.972,3.822-6.841a84.492,84.492,0,0,1,7.286-8.852q3.783-3.983,4.926-3.823a1.613,1.613,0,0,1,1.472,1.955,6.384,6.384,0,0,1-1.86,3.6,30.123,30.123,0,0,1-3.473,4.115,65.973,65.973,0,0,0-5.3,6.419q-2.248,3.134-1.579,4.591,6.178.961,16.386-4.89A73.322,73.322,0,0,0,521.843,80.93q1.566-1.759,2.5-1.807,1.038-.047-.374,2.18A69.212,69.212,0,0,1,512.022,93.33a61.144,61.144,0,0,1-13.882,8.537q-6.846,2.932-10.944,1.823-2.542-.634-3.116-.377a60.112,60.112,0,0,0-4.908,5.693,42.612,42.612,0,0,1-5.064,5.589,1.567,1.567,0,0,1-2.285-.01q-1.035-.991-.687-3.276T473.913,100q.159-.727,2.038-8.563t3.6-14.816q1.718-6.979,4.541-16.812t5.347-16.939a85.136,85.136,0,0,1,5.587-12.652q3.063-5.545,5.664-6.365,1.086,1.251.812,4.393" transform="translate(-257.988 -13.061)" fill="#313133"/><path d="M676.469,119.763q1.037.421.771,1.926a46.452,46.452,0,0,1-2.21,6.484q-2.943,7.519-5.232,14.523t-3.216,10.87q-.927,3.865-.459,3.869,4.333-4.762,7.62-7.993t8.138-7.731q4.85-4.5,9.182-8.688,1.718-.979,2.133-.77t.152.884a7.755,7.755,0,0,1-1.047,1.71q-2.976,3.468-6.759,7.244t-6.678,6.465q-2.895,2.689-6.209,6.207a81.07,81.07,0,0,0-5.77,6.781,24.648,24.648,0,0,0-2.985,5.39q-1.313,3.162-2.524,7t-1.842,5.4l-2.046,4.51q-4.4,9.072-9.148,13.052-3.442,2.894-4.628.967-.119-8.365,4.471-18.579t10.38-15.592a37.629,37.629,0,0,0,3.165-4.947,10.49,10.49,0,0,0,1.393-3.6,136.1,136.1,0,0,0,3.542-14.011,5.291,5.291,0,0,0,.213-1.246q-.73.517-2.136,1.549-1.773,1.24-3.387,2.3a20.8,20.8,0,0,1-3.1,1.7,5.309,5.309,0,0,1-2.782.481,4.034,4.034,0,0,1-2.333-1.153,8.558,8.558,0,0,1-1.856-3.359,32.151,32.151,0,0,1-1.324-6.058q-.5-4.158-.726-6.211a30.735,30.735,0,0,1-.219-3.326,4.167,4.167,0,0,1,.162-1.532q.157-.259.624-.153a3.339,3.339,0,0,1,1.426.629,4.955,4.955,0,0,1,.951,2.29,27,27,0,0,1,.548,5.406,27.211,27.211,0,0,0,.346,4.106q1.011,6.29,5.173,5.165,3.9-1.022,8.917-7.6a35.693,35.693,0,0,0,6.128-11.351,5.2,5.2,0,0,1,.945-2.359,1.81,1.81,0,0,1,1.561-.8,1.5,1.5,0,0,1,.675.159" transform="translate(-352.551 -65.504)" fill="#313133"/><path d="M750.191,137.157a4.556,4.556,0,0,0,.98,1.771,5.559,5.559,0,0,0,1.845-.252q1.639-.356,3.795-.607a24.787,24.787,0,0,1,4.391-.111,6.62,6.62,0,0,1,3.941,1.576,6.416,6.416,0,0,1,2.113,4.139q-.427,2.389-.167,2.649.155.156,4.238-1.021t8.687-2.612q4.6-1.434,5.488-1.587a2.688,2.688,0,0,1,.883-.048q.779.056.569.574-.264.778-1.927,1.186-4.892,2-10.824,4.239t-8.638,3.314a18.237,18.237,0,0,1-5.064,5.615,34.978,34.978,0,0,1-7.969,4.667,33.008,33.008,0,0,1-8.946,2.4,13.689,13.689,0,0,1-8.047-1.23,5.2,5.2,0,0,1-3.176-4.43,13.237,13.237,0,0,1,1.225-6.852,50.675,50.675,0,0,1,3.927-7.282,35.764,35.764,0,0,1,4.91-6.135,10.84,10.84,0,0,1,4.195-2.942q2.441.01,3.572,2.976m-7.29,3.787a50.948,50.948,0,0,0-3.344,4.376,27.237,27.237,0,0,0-2.67,4.794,17.794,17.794,0,0,0-1.293,4.7,6.165,6.165,0,0,0,.787,4.107q.929,1.407,4.357,1.551a27.234,27.234,0,0,0,7.407-.8A26.259,26.259,0,0,0,756,156.3a14.051,14.051,0,0,0,5.454-5.691,27.392,27.392,0,0,0-3.689.036,16.162,16.162,0,0,1-4.986-.437,9.412,9.412,0,0,1-4.145-2.512,4.311,4.311,0,0,1-1.313-2.551,5.483,5.483,0,0,1,.351-3.116,7.694,7.694,0,0,0,.475-1.712,3.254,3.254,0,0,0-.305-1.456q-.566-1.353-1.657-1.358a42.628,42.628,0,0,0-3.288,3.44m10.47-.344a5.9,5.9,0,0,0-2.944,2.014,3.11,3.11,0,0,0-.014,3.377q1.24,1.616,4.381,2.045a17.863,17.863,0,0,0,5.95-.13q2.807-.558,3.487-1.491,1.727-3-.473-4.73a9.635,9.635,0,0,0-6.045-1.74,13.212,13.212,0,0,0-4.341.656" transform="translate(-401.066 -73.489)" fill="#313133"/><path d="M849.859,143.7q-.474,1.609-1.08,3.606t-.791,2.646q-.185.649-.451,1.947a19.075,19.075,0,0,0-.348,2.57q-.083,1.273-.2,3.506-.23,4.935,1.689,5.877,1.916.995,5-2a13.18,13.18,0,0,0,3.768-6.322,35.879,35.879,0,0,1,1.475-4.643q.839-2.1,2.046-4.537t1.73-3.577a15.4,15.4,0,0,1,2.168-2.9,1.716,1.716,0,0,1,2.391-.171,1.137,1.137,0,0,1,.491.7,17.83,17.83,0,0,1-1.56,6.3q-1.39,3.138-2.988,6.325a20.255,20.255,0,0,0-2.027,6.1,1.9,1.9,0,0,0,1.45,1.253,4.979,4.979,0,0,0,2.547-.3,23.337,23.337,0,0,0,3.279-1.441,36.348,36.348,0,0,0,3.751-2.3q1.979-1.367,3.882-2.788t3.78-2.971q1.877-1.55,3.311-2.739t2.633-2.2q1.2-1.007,1.616-1.318a4.192,4.192,0,0,1,2.6-1.08q1.09,0,.359,1.092l-2.139,2.121q-1.046,1.035-2.792,2.689t-3.416,3.05q-1.669,1.4-3.7,3.075t-3.908,2.944q-1.876,1.265-3.881,2.451a20.824,20.824,0,0,1-3.8,1.8,15.834,15.834,0,0,1-3.406.79,5.691,5.691,0,0,1-2.933-.4,5.082,5.082,0,0,1-2.2-1.88,25.259,25.259,0,0,1-4.854,5.2,7.809,7.809,0,0,1-4.45,1.877q-2.053.043-3.418-2.482a18.577,18.577,0,0,1-1.656-7.514q0-1.091.087-2.077t.112-1.74a14.322,14.322,0,0,1,.162-1.61q.134-.856.188-1.35a10.467,10.467,0,0,1,.266-1.324c.142-.553.238-.934.291-1.142s.176-.613.369-1.219.308-.986.343-1.141.176-.579.421-1.271.386-1.123.421-1.3a8.3,8.3,0,0,0,.263-.83,8.439,8.439,0,0,1,.264-.83c.07-.173.158-.415.263-.726a3.388,3.388,0,0,1,.289-.674c.086-.137.192-.319.314-.544a1.72,1.72,0,0,1,.366-.492c.121-.1.269-.214.442-.336a1.376,1.376,0,0,1,.547-.231,3.743,3.743,0,0,1,.65-.049q1.3.006-.02,4.52" transform="translate(-462.151 -76.227)" fill="#313133"/></g></g></svg>